CascadiaNext-Condensed.ufo
<glyph name="numbersign" format="2">
  <advance width="600"/>
  <unicode hex="0023"/>
  <outline>
    <contour>
      <point x="319" y="0" type="line"/>
      <point x="453" y="0" type="line"/>
      <point x="512" y="1420" type="line"/>
      <point x="378" y="1420" type="line"/>
      <point x="361" y="1012" type="line"/>
      <point x="359" y="962" type="line"/>
      <point x="339" y="480" type="line"/>
      <point x="337" y="433" type="line"/>
    </contour>
    <contour>
      <point x="20" y="360" type="line"/>
      <point x="580" y="360" type="line"/>
      <point x="580" y="520" type="line"/>
      <point x="20" y="520" type="line"/>
    </contour>
    <contour>
      <point x="88" y="0" type="line"/>
      <point x="222" y="0" type="line"/>
      <point x="240" y="432" type="line"/>
      <point x="242" y="486" type="line"/>
      <point x="262" y="973" type="line"/>
      <point x="264" y="1013" type="line"/>
      <point x="281" y="1420" type="line"/>
      <point x="147" y="1420" type="line"/>
    </contour>
    <contour>
      <point x="20" y="900" type="line"/>
      <point x="580" y="900" type="line"/>
      <point x="580" y="1060" type="line"/>
      <point x="20" y="1060" type="line"/>
    </contour>
  </outline>
</glyph>
<glyph name="dollar" format="2">
  <advance width="600"/>
  <unicode hex="0024"/>
  <anchor x="304" y="0" name="bottom"/>
  <anchor x="309" y="1420" name="top"/>
  <outline>
    <contour>
      <point x="225" y="-320" type="line"/>
      <point x="363" y="-320" type="line"/>
      <point x="363" y="1740" type="line"/>
      <point x="225" y="1740" type="line"/>
    </contour>
    <component base="S"/>
  </outline>
</glyph>
<glyph name="percent" format="2">
  <advance width="600"/>
  <unicode hex="0025"/>
  <outline>
    <contour>
      <point x="91" y="451" type="line"/>
      <point x="597" y="826" type="line"/>
      <point x="506" y="956" type="line"/>
      <point x="1" y="587" type="line"/>
    </contour>
    <contour>
      <point x="226" y="856" type="curve" smooth="yes"/>
      <point x="362" y="855"/>
      <point x="432" y="956"/>
      <point x="432" y="1148" type="curve" smooth="yes"/>
      <point x="432" y="1340"/>
      <point x="362" y="1440"/>
      <point x="226" y="1440" type="curve" smooth="yes"/>
      <point x="91" y="1440"/>
      <point x="20" y="1340"/>
      <point x="20" y="1148" type="curve" smooth="yes"/>
      <point x="20" y="956"/>
      <point x="91" y="855"/>
    </contour>
    <contour>
      <point x="226" y="1006" type="curve" smooth="yes"/>
      <point x="184" y="1006"/>
      <point x="162" y="1055"/>
      <point x="162" y="1148" type="curve" smooth="yes"/>
      <point x="162" y="1241"/>
      <point x="184" y="1290"/>
      <point x="226" y="1290" type="curve" smooth="yes"/>
      <point x="268" y="1290"/>
      <point x="290" y="1241"/>
      <point x="290" y="1148" type="curve" smooth="yes"/>
      <point x="290" y="1055"/>
      <point x="268" y="1006"/>
    </contour>
    <contour>
      <point x="374" y="-19" type="curve" smooth="yes"/>
      <point x="510" y="-20"/>
      <point x="580" y="81"/>
      <point x="580" y="273" type="curve" smooth="yes"/>
      <point x="580" y="465"/>
      <point x="510" y="565"/>
      <point x="374" y="565" type="curve" smooth="yes"/>
      <point x="239" y="565"/>
      <point x="168" y="465"/>
      <point x="168" y="273" type="curve" smooth="yes"/>
      <point x="168" y="81"/>
      <point x="239" y="-20"/>
    </contour>
    <contour>
      <point x="374" y="131" type="curve" smooth="yes"/>
      <point x="332" y="131"/>
      <point x="310" y="180"/>
      <point x="310" y="273" type="curve" smooth="yes"/>
      <point x="310" y="366"/>
      <point x="332" y="415"/>
      <point x="374" y="415" type="curve" smooth="yes"/>
      <point x="416" y="415"/>
      <point x="438" y="366"/>
      <point x="438" y="273" type="curve" smooth="yes"/>
      <point x="438" y="180"/>
      <point x="416" y="131"/>
    </contour>
  </outline>
</glyph>
<glyph name="ampersand" format="2">
  <advance width="600"/>
  <unicode hex="0026"/>
  <outline>
    <contour>
      <point x="442" y="0" type="line"/>
      <point x="600" y="0" type="line"/>
      <point x="274" y="923" type="line" smooth="yes"/>
      <point x="244" y="1005"/>
      <point x="218" y="1085"/>
      <point x="218" y="1171" type="curve" smooth="yes"/>
      <point x="218" y="1233"/>
      <point x="248" y="1270"/>
      <point x="298" y="1270" type="curve"/>
      <point x="296" y="1440" type="line"/>
      <point x="148" y="1440"/>
      <point x="61" y="1333"/>
      <point x="61" y="1153" type="curve" smooth="yes"/>
      <point x="61" y="1053"/>
      <point x="90" y="969"/>
      <point x="120" y="888" type="curve" smooth="yes"/>
      <point x="200" y="670" type="line"/>
      <point x="224" y="606" type="line"/>
      <point x="372" y="200" type="line"/>
      <point x="389" y="152" type="line"/>
    </contour>
    <contour>
      <point x="233" y="-20" type="curve" smooth="yes"/>
      <point x="321" y="-20"/>
      <point x="381" y="33"/>
      <point x="413" y="137" type="curve"/>
      <point x="397" y="359" type="line"/>
      <point x="367" y="221"/>
      <point x="316" y="150"/>
      <point x="245" y="150" type="curve" smooth="yes"/>
      <point x="194" y="150"/>
      <point x="167" y="200"/>
      <point x="167" y="293" type="curve" smooth="yes"/>
      <point x="167" y="411"/>
      <point x="231" y="539"/>
      <point x="327" y="645" type="curve"/>
      <point x="249" y="758" type="line"/>
      <point x="101" y="659"/>
      <point x="3" y="479"/>
      <point x="3" y="283" type="curve" smooth="yes"/>
      <point x="3" y="84"/>
      <point x="82" y="-20"/>
    </contour>
    <contour>
      <point x="454" y="357" type="line"/>
      <point x="531" y="469"/>
      <point x="569" y="643"/>
      <point x="569" y="875" type="curve"/>
      <point x="421" y="875" type="line"/>
      <point x="421" y="726"/>
      <point x="410" y="607"/>
      <point x="387" y="519" type="curve"/>
    </contour>
    <contour>
      <point x="373" y="1122" type="curve"/>
      <point x="531" y="1122" type="line"/>
      <point x="531" y="1322"/>
      <point x="444" y="1440"/>
      <point x="296" y="1440" type="curve"/>
      <point x="298" y="1270" type="line"/>
      <point x="345" y="1270"/>
      <point x="373" y="1215"/>
    </contour>
  </outline>
</glyph>
<glyph name="parenleft" format="2">
  <advance width="600"/>
  <unicode hex="0028"/>
  <outline>
    <contour>
      <point x="522" y="-200" type="curve" smooth="yes"/>
      <point x="540" y="-200" type="line"/>
      <point x="540" y="-30" type="line"/>
      <point x="522" y="-30" type="line" smooth="yes"/>
      <point x="354" y="-30"/>
      <point x="295" y="160"/>
      <point x="295" y="710" type="curve" smooth="yes"/>
      <point x="295" y="1260"/>
      <point x="354" y="1450"/>
      <point x="522" y="1450" type="curve" smooth="yes"/>
      <point x="540" y="1450" type="line"/>
      <point x="540" y="1620" type="line"/>
      <point x="522" y="1620" type="line" smooth="yes"/>
      <point x="232" y="1620"/>
      <point x="131" y="1386"/>
      <point x="131" y="711" type="curve" smooth="yes"/>
      <point x="131" y="34"/>
      <point x="232" y="-200"/>
    </contour>
  </outline>
</glyph>
<glyph name="parenright" format="2">
  <advance width="600"/>
  <unicode hex="0029"/>
  <outline>
    <contour>
      <point x="60" y="-200" type="line"/>
      <point x="78" y="-200" type="line" smooth="yes"/>
      <point x="368" y="-200"/>
      <point x="469" y="34"/>
      <point x="469" y="711" type="curve" smooth="yes"/>
      <point x="469" y="1386"/>
      <point x="368" y="1620"/>
      <point x="78" y="1620" type="curve" smooth="yes"/>
      <point x="60" y="1620" type="line"/>
      <point x="60" y="1450" type="line"/>
      <point x="78" y="1450" type="line" smooth="yes"/>
      <point x="246" y="1450"/>
      <point x="305" y="1260"/>
      <point x="305" y="710" type="curve" smooth="yes"/>
      <point x="305" y="160"/>
      <point x="246" y="-30"/>
      <point x="78" y="-30" type="curve" smooth="yes"/>
      <point x="60" y="-30" type="line"/>
    </contour>
  </outline>
</glyph>
<glyph name="asterisk" format="2">
  <advance width="600"/>
  <unicode hex="002A"/>
  <outline>
    <contour>
      <point x="396" y="252" type="line"/>
      <point x="548" y="317" type="line"/>
      <point x="353" y="740" type="line"/>
      <point x="265" y="682" type="line"/>
    </contour>
    <contour>
      <point x="202" y="252" type="line"/>
      <point x="343" y="682" type="line"/>
      <point x="255" y="740" type="line"/>
      <point x="50" y="317" type="line"/>
    </contour>
    <contour>
      <point x="303" y="605" type="line"/>
      <point x="303" y="750" type="line"/>
      <point x="74" y="884" type="line"/>
      <point x="12" y="729" type="line"/>
    </contour>
    <contour>
      <point x="244" y="696" type="line"/>
      <point x="364" y="696" type="line"/>
      <point x="383" y="1176" type="line"/>
      <point x="225" y="1176" type="line"/>
    </contour>
    <contour>
      <point x="303" y="605" type="line"/>
      <point x="588" y="729" type="line"/>
      <point x="525" y="884" type="line"/>
      <point x="303" y="750" type="line"/>
    </contour>
  </outline>
</glyph>
<glyph name="plus" format="2">
  <advance width="600"/>
  <unicode hex="002B"/>
  <outline>
    <contour>
      <point x="221" y="190" type="line"/>
      <point x="379" y="190" type="line"/>
      <point x="379" y="1228" type="line"/>
      <point x="221" y="1228" type="line"/>
    </contour>
    <contour>
      <point x="40" y="630" type="line"/>
      <point x="560" y="630" type="line"/>
      <point x="560" y="790" type="line"/>
      <point x="40" y="790" type="line"/>
    </contour>
  </outline>
</glyph>
<glyph name="comma" format="2">
  <advance width="600"/>
  <unicode hex="002C"/>
  <outline>
    <contour>
      <point x="161" y="-436" type="line"/>
      <point x="302" y="-436" type="line"/>
      <point x="415" y="213" type="line"/>
      <point x="236" y="213" type="line"/>
    </contour>
  </outline>
</glyph>
<glyph name="period" format="2">
  <advance width="600"/>
  <unicode hex="002E"/>
  <outline>
    <contour>
      <point x="300" y="-20" type="curve" smooth="yes"/>
      <point x="377" y="-20"/>
      <point x="439" y="42"/>
      <point x="439" y="119" type="curve" smooth="yes"/>
      <point x="439" y="196"/>
      <point x="377" y="259"/>
      <point x="300" y="259" type="curve" smooth="yes"/>
      <point x="223" y="259"/>
      <point x="161" y="196"/>
      <point x="161" y="119" type="curve" smooth="yes"/>
      <point x="161" y="42"/>
      <point x="223" y="-20"/>
    </contour>
  </outline>
</glyph>
<glyph name="slash" format="2">
  <advance width="600"/>
  <unicode hex="002F"/>
  <outline>
    <contour>
      <point x="27" y="-190" type="line"/>
      <point x="176" y="-190" type="line"/>
      <point x="563" y="1610" type="line"/>
      <point x="414" y="1610" type="line"/>
    </contour>
  </outline>
</glyph>
<glyph name="zero" format="2">
  <advance width="600"/>
  <unicode hex="0030"/>
  <outline>
    <contour>
      <point x="300" y="-20" type="curve" smooth="yes"/>
      <point x="496" y="-20"/>
      <point x="564" y="165"/>
      <point x="564" y="700" type="curve" smooth="yes"/>
      <point x="564" y="1250"/>
      <point x="496" y="1440"/>
      <point x="300" y="1440" type="curve" smooth="yes"/>
      <point x="104" y="1440"/>
      <point x="36" y="1250"/>
      <point x="36" y="700" type="curve" smooth="yes"/>
      <point x="36" y="165"/>
      <point x="104" y="-20"/>
    </contour>
    <contour>
      <point x="300" y="550" type="curve" smooth="yes"/>
      <point x="353" y="550"/>
      <point x="389" y="610"/>
      <point x="389" y="700" type="curve" smooth="yes"/>
      <point x="389" y="790"/>
      <point x="353" y="850"/>
      <point x="300" y="850" type="curve" smooth="yes"/>
      <point x="246" y="850"/>
      <point x="211" y="789"/>
      <point x="211" y="700" type="curve" smooth="yes"/>
      <point x="211" y="611"/>
      <point x="246" y="550"/>
    </contour>
    <contour>
      <point x="300" y="150" type="curve" smooth="yes"/>
      <point x="214" y="150"/>
      <point x="184" y="291"/>
      <point x="184" y="700" type="curve" smooth="yes"/>
      <point x="184" y="1123"/>
      <point x="214" y="1270"/>
      <point x="300" y="1270" type="curve" smooth="yes"/>
      <point x="386" y="1270"/>
      <point x="416" y="1123"/>
      <point x="416" y="700" type="curve" smooth="yes"/>
      <point x="416" y="291"/>
      <point x="386" y="150"/>
    </contour>
  </outline>
</glyph>
<glyph name="one" format="2">
  <advance width="600"/>
  <unicode hex="0031"/>
  <outline>
    <contour>
      <point x="248" y="0" type="line"/>
      <point x="406" y="0" type="line"/>
      <point x="406" y="1420" type="line"/>
      <point x="248" y="1420" type="line"/>
    </contour>
    <contour>
      <point x="84" y="0" type="line"/>
      <point x="256" y="0" type="line"/>
      <point x="256" y="170" type="line"/>
      <point x="84" y="170" type="line"/>
    </contour>
    <contour>
      <point x="398" y="0" type="line"/>
      <point x="526" y="0" type="line"/>
      <point x="526" y="170" type="line"/>
      <point x="398" y="170" type="line"/>
    </contour>
    <contour>
      <point x="92" y="1118" type="line"/>
      <point x="248" y="1234" type="line"/>
      <point x="248" y="1420" type="line"/>
      <point x="92" y="1300" type="line"/>
    </contour>
  </outline>
</glyph>
<glyph name="two" format="2">
  <advance width="600"/>
  <unicode hex="0032"/>
  <outline>
    <contour>
      <point x="87" y="0" type="line"/>
      <point x="248" y="0" type="line"/>
      <point x="248" y="180" type="line"/>
      <point x="406" y="569"/>
      <point x="534" y="900"/>
      <point x="534" y="1143" type="curve" smooth="yes"/>
      <point x="534" y="1347"/>
      <point x="464" y="1440"/>
      <point x="310" y="1440" type="curve" smooth="yes"/>
      <point x="199" y="1440"/>
      <point x="119" y="1384"/>
      <point x="55" y="1262" type="curve"/>
      <point x="179" y="1184" type="line"/>
      <point x="209" y="1243"/>
      <point x="242" y="1270"/>
      <point x="284" y="1270" type="curve" smooth="yes"/>
      <point x="344" y="1270"/>
      <point x="370" y="1230"/>
      <point x="370" y="1143" type="curve" smooth="yes"/>
      <point x="370" y="932"/>
      <point x="273" y="612"/>
      <point x="87" y="213" type="curve"/>
    </contour>
    <contour>
      <point x="115" y="0" type="line"/>
      <point x="537" y="0" type="line"/>
      <point x="537" y="170" type="line"/>
      <point x="115" y="170" type="line"/>
    </contour>
  </outline>
</glyph>
<glyph name="three" format="2">
  <advance width="600"/>
  <unicode hex="0033"/>
  <outline>
    <contour>
      <point x="233" y="-20" type="curve" smooth="yes"/>
      <point x="422" y="-20"/>
      <point x="529" y="127"/>
      <point x="529" y="380" type="curve" smooth="yes"/>
      <point x="529" y="565"/>
      <point x="447" y="711"/>
      <point x="322" y="733" type="curve" smooth="yes"/>
      <point x="164" y="779" type="line"/>
      <point x="173" y="651" type="line"/>
      <point x="198" y="651" type="line" smooth="yes"/>
      <point x="301" y="651"/>
      <point x="365" y="544"/>
      <point x="365" y="380" type="curve" smooth="yes"/>
      <point x="365" y="234"/>
      <point x="315" y="150"/>
      <point x="229" y="150" type="curve" smooth="yes"/>
      <point x="162" y="150"/>
      <point x="124" y="164"/>
      <point x="87" y="175" type="curve"/>
      <point x="79" y="8" type="line"/>
      <point x="123" y="-10"/>
      <point x="174" y="-20"/>
    </contour>
    <contour>
      <point x="173" y="651" type="line"/>
      <point x="330" y="680" type="line"/>
      <point x="330" y="745" type="line"/>
      <point x="442" y="807"/>
      <point x="516" y="929"/>
      <point x="516" y="1122" type="curve" smooth="yes"/>
      <point x="516" y="1324"/>
      <point x="427" y="1440"/>
      <point x="271" y="1440" type="curve" smooth="yes"/>
      <point x="187" y="1440"/>
      <point x="121" y="1423"/>
      <point x="68" y="1377" type="curve"/>
      <point x="123" y="1236" type="line"/>
      <point x="159" y="1261"/>
      <point x="196" y="1270"/>
      <point x="234" y="1270" type="curve" smooth="yes"/>
      <point x="309" y="1270"/>
      <point x="352" y="1216"/>
      <point x="352" y="1122" type="curve" smooth="yes"/>
      <point x="352" y="947"/>
      <point x="286" y="812"/>
      <point x="164" y="779" type="curve"/>
    </contour>
  </outline>
</glyph>
<glyph name="four" format="2">
  <advance width="600"/>
  <unicode hex="0034"/>
  <outline>
    <contour>
      <point x="35" y="318" type="line"/>
      <point x="196" y="318" type="line"/>
      <point x="257" y="1340" type="line"/>
      <point x="95" y="1340" type="line"/>
    </contour>
    <contour>
      <point x="35" y="318" type="line"/>
      <point x="370" y="318" type="line"/>
      <point x="370" y="488" type="line"/>
      <point x="126" y="488" type="line"/>
    </contour>
    <contour>
      <point x="507" y="318" type="line"/>
      <point x="581" y="318" type="line"/>
      <point x="581" y="488" type="line"/>
      <point x="507" y="488" type="line"/>
    </contour>
    <contour>
      <point x="360" y="0" type="line"/>
      <point x="517" y="0" type="line"/>
      <point x="517" y="1420" type="line"/>
      <point x="360" y="1420" type="line"/>
    </contour>
  </outline>
</glyph>
<glyph name="five" format="2">
  <advance width="600"/>
  <unicode hex="0035"/>
  <outline>
    <contour>
      <point x="295" y="-20" type="curve" smooth="yes"/>
      <point x="475" y="-20"/>
      <point x="547" y="117"/>
      <point x="547" y="458" type="curve" smooth="yes"/>
      <point x="547" y="792"/>
      <point x="496" y="926"/>
      <point x="369" y="926" type="curve" smooth="yes"/>
      <point x="332" y="926"/>
      <point x="282" y="906"/>
      <point x="255" y="820" type="curve"/>
      <point x="229" y="820" type="line"/>
      <point x="195" y="680" type="line"/>
      <point x="212" y="733"/>
      <point x="238" y="756"/>
      <point x="274" y="756" type="curve" smooth="yes"/>
      <point x="352" y="756"/>
      <point x="383" y="671"/>
      <point x="383" y="458" type="curve" smooth="yes"/>
      <point x="383" y="238"/>
      <point x="360" y="150"/>
      <point x="302" y="150" type="curve" smooth="yes"/>
      <point x="250" y="150"/>
      <point x="229" y="221"/>
      <point x="229" y="398" type="curve"/>
      <point x="65" y="398" type="line"/>
      <point x="65" y="99"/>
      <point x="131" y="-20"/>
    </contour>
    <contour>
      <point x="95" y="680" type="line"/>
      <point x="195" y="680" type="line"/>
      <point x="242" y="804" type="line"/>
      <point x="260" y="1420" type="line"/>
      <point x="105" y="1420" type="line"/>
    </contour>
    <contour>
      <point x="165" y="1250" type="line"/>
      <point x="505" y="1250" type="line"/>
      <point x="505" y="1420" type="line"/>
      <point x="157" y="1420" type="line"/>
    </contour>
  </outline>
</glyph>
<glyph name="six" format="2">
  <advance width="600"/>
  <unicode hex="0036"/>
  <outline>
    <contour>
      <point x="305" y="-20" type="curve" smooth="yes"/>
      <point x="459" y="-20"/>
      <point x="548" y="159"/>
      <point x="548" y="460" type="curve" smooth="yes"/>
      <point x="548" y="739"/>
      <point x="486" y="900"/>
      <point x="375" y="900" type="curve" smooth="yes"/>
      <point x="307" y="900"/>
      <point x="256" y="838"/>
      <point x="239" y="719" type="curve"/>
      <point x="201" y="719" type="line"/>
      <point x="62" y="486" type="line"/>
      <point x="62" y="140"/>
      <point x="154" y="-20"/>
    </contour>
    <contour>
      <point x="304" y="150" type="curve" smooth="yes"/>
      <point x="254" y="150"/>
      <point x="226" y="259"/>
      <point x="226" y="440" type="curve" smooth="yes"/>
      <point x="226" y="626"/>
      <point x="255" y="730"/>
      <point x="306" y="730" type="curve" smooth="yes"/>
      <point x="356" y="730"/>
      <point x="384" y="634"/>
      <point x="384" y="460" type="curve" smooth="yes"/>
      <point x="384" y="265"/>
      <point x="354" y="150"/>
    </contour>
    <contour>
      <point x="62" y="486" type="line"/>
      <point x="227" y="552" type="line"/>
      <point x="227" y="717" type="line" smooth="yes"/>
      <point x="227" y="1061"/>
      <point x="315" y="1239"/>
      <point x="498" y="1256" type="curve"/>
      <point x="487" y="1426" type="line"/>
      <point x="183" y="1396"/>
      <point x="62" y="1153"/>
      <point x="62" y="574" type="curve" smooth="yes"/>
    </contour>
  </outline>
</glyph>
<glyph name="seven" format="2">
  <advance width="600"/>
  <unicode hex="0037"/>
  <outline>
    <contour>
      <point x="259" y="0" type="line"/>
      <point x="419" y="0" type="line"/>
      <point x="580" y="1420" type="line"/>
      <point x="420" y="1420" type="line"/>
    </contour>
    <contour>
      <point x="60" y="922" type="line"/>
      <point x="218" y="922" type="line"/>
      <point x="218" y="1390" type="line"/>
      <point x="60" y="1390" type="line"/>
    </contour>
    <contour>
      <point x="60" y="1250" type="line"/>
      <point x="485" y="1250" type="line"/>
      <point x="580" y="1420" type="line"/>
      <point x="60" y="1420" type="line"/>
    </contour>
  </outline>
</glyph>
<glyph name="eight" format="2">
  <advance width="600"/>
  <unicode hex="0038"/>
  <outline>
    <contour>
      <point x="300" y="-20" type="curve" smooth="yes"/>
      <point x="481" y="-20"/>
      <point x="564" y="109"/>
      <point x="564" y="390" type="curve" smooth="yes"/>
      <point x="564" y="628"/>
      <point x="468" y="764"/>
      <point x="300" y="764" type="curve" smooth="yes"/>
      <point x="132" y="764"/>
      <point x="36" y="628"/>
      <point x="36" y="390" type="curve" smooth="yes"/>
      <point x="36" y="109"/>
      <point x="119" y="-20"/>
    </contour>
    <contour>
      <point x="300" y="150" type="curve" smooth="yes"/>
      <point x="231" y="150"/>
      <point x="200" y="228"/>
      <point x="200" y="400" type="curve" smooth="yes"/>
      <point x="200" y="560"/>
      <point x="236" y="654"/>
      <point x="300" y="654" type="curve" smooth="yes"/>
      <point x="364" y="654"/>
      <point x="400" y="560"/>
      <point x="400" y="400" type="curve" smooth="yes"/>
      <point x="400" y="228"/>
      <point x="369" y="150"/>
    </contour>
    <contour>
      <point x="222" y="706" type="line"/>
      <point x="379" y="706" type="line"/>
      <point x="379" y="808" type="line"/>
      <point x="222" y="808" type="line"/>
    </contour>
    <contour>
      <point x="300" y="846" type="curve" smooth="yes"/>
      <point x="248" y="846"/>
      <point x="219" y="919"/>
      <point x="219" y="1040" type="curve" smooth="yes"/>
      <point x="219" y="1198"/>
      <point x="244" y="1270"/>
      <point x="300" y="1270" type="curve" smooth="yes"/>
      <point x="356" y="1270"/>
      <point x="381" y="1198"/>
      <point x="381" y="1040" type="curve" smooth="yes"/>
      <point x="381" y="919"/>
      <point x="352" y="846"/>
    </contour>
    <contour>
      <point x="300" y="746" type="curve" smooth="yes"/>
      <point x="456" y="746"/>
      <point x="545" y="868"/>
      <point x="545" y="1080" type="curve" smooth="yes"/>
      <point x="545" y="1327"/>
      <point x="468" y="1440"/>
      <point x="300" y="1440" type="curve" smooth="yes"/>
      <point x="132" y="1440"/>
      <point x="55" y="1327"/>
      <point x="55" y="1080" type="curve" smooth="yes"/>
      <point x="55" y="868"/>
      <point x="144" y="746"/>
    </contour>
  </outline>
</glyph>
<glyph name="nine" format="2">
  <advance width="600"/>
  <unicode hex="0039"/>
  <outline>
    <contour>
      <point x="232" y="506" type="curve" smooth="yes"/>
      <point x="300" y="506"/>
      <point x="351" y="568"/>
      <point x="368" y="687" type="curve"/>
      <point x="406" y="687" type="line"/>
      <point x="545" y="920" type="line"/>
      <point x="545" y="1266"/>
      <point x="453" y="1426"/>
      <point x="302" y="1426" type="curve" smooth="yes"/>
      <point x="148" y="1426"/>
      <point x="59" y="1247"/>
      <point x="59" y="946" type="curve" smooth="yes"/>
      <point x="59" y="667"/>
      <point x="121" y="506"/>
    </contour>
    <contour>
      <point x="120" y="-20" type="line"/>
      <point x="424" y="10"/>
      <point x="545" y="254"/>
      <point x="545" y="832" type="curve" smooth="yes"/>
      <point x="545" y="920" type="line"/>
      <point x="380" y="854" type="line"/>
      <point x="380" y="689" type="line" smooth="yes"/>
      <point x="380" y="345"/>
      <point x="292" y="167"/>
      <point x="109" y="150" type="curve"/>
    </contour>
    <contour>
      <point x="301" y="676" type="curve" smooth="yes"/>
      <point x="251" y="676"/>
      <point x="223" y="772"/>
      <point x="223" y="946" type="curve" smooth="yes"/>
      <point x="223" y="1141"/>
      <point x="253" y="1256"/>
      <point x="303" y="1256" type="curve" smooth="yes"/>
      <point x="353" y="1256"/>
      <point x="381" y="1147"/>
      <point x="381" y="966" type="curve" smooth="yes"/>
      <point x="381" y="780"/>
      <point x="352" y="676"/>
    </contour>
  </outline>
</glyph>
<glyph name="less" format="2">
  <advance width="600"/>
  <unicode hex="003C"/>
  <outline>
    <contour>
      <point x="528" y="214" type="line"/>
      <point x="528" y="424" type="line"/>
      <point x="193" y="700" type="line"/>
      <point x="193" y="718" type="line"/>
      <point x="528" y="994" type="line"/>
      <point x="528" y="1204" type="line"/>
      <point x="50" y="800" type="line"/>
      <point x="50" y="618" type="line"/>
    </contour>
  </outline>
</glyph>
<glyph name="equal" format="2">
  <advance width="600"/>
  <unicode hex="003D"/>
  <outline>
    <contour>
      <point x="40" y="879" type="line"/>
      <point x="560" y="879" type="line"/>
      <point x="560" y="1039" type="line"/>
      <point x="40" y="1039" type="line"/>
    </contour>
    <contour>
      <point x="40" y="379" type="line"/>
      <point x="560" y="379" type="line"/>
      <point x="560" y="539" type="line"/>
      <point x="40" y="539" type="line"/>
    </contour>
  </outline>
</glyph>
<glyph name="greater" format="2">
  <advance width="600"/>
  <unicode hex="003E"/>
  <outline>
    <contour>
      <point x="72" y="214" type="line"/>
      <point x="550" y="618" type="line"/>
      <point x="550" y="800" type="line"/>
      <point x="72" y="1204" type="line"/>
      <point x="72" y="994" type="line"/>
      <point x="407" y="718" type="line"/>
      <point x="407" y="700" type="line"/>
      <point x="72" y="424" type="line"/>
    </contour>
  </outline>
</glyph>
<glyph name="question" format="2">
  <advance width="600"/>
  <unicode hex="003F"/>
  <outline>
    <contour>
      <point x="215" y="457" type="line"/>
      <point x="369" y="457" type="line"/>
      <point x="369" y="589" type="line" smooth="yes"/>
      <point x="369" y="725"/>
      <point x="390" y="800"/>
      <point x="413" y="859" type="curve" smooth="yes"/>
      <point x="458" y="970"/>
      <point x="505" y="1057"/>
      <point x="505" y="1183" type="curve" smooth="yes"/>
      <point x="505" y="1347"/>
      <point x="430" y="1440"/>
      <point x="299" y="1440" type="curve"/>
      <point x="263" y="1270" type="line"/>
      <point x="318" y="1270"/>
      <point x="349" y="1235"/>
      <point x="349" y="1173" type="curve" smooth="yes"/>
      <point x="349" y="1091"/>
      <point x="323" y="1034"/>
      <point x="294" y="966" type="curve" smooth="yes"/>
      <point x="251" y="863"/>
      <point x="215" y="771"/>
      <point x="215" y="624" type="curve" smooth="yes"/>
    </contour>
    <contour>
      <point x="146" y="1189" type="line"/>
      <point x="174" y="1243"/>
      <point x="220" y="1270"/>
      <point x="263" y="1270" type="curve"/>
      <point x="299" y="1440" type="line"/>
      <point x="201" y="1440"/>
      <point x="114" y="1396"/>
      <point x="53" y="1292" type="curve"/>
    </contour>
    <component base="period" xOffset="-7"/>
  </outline>
</glyph>
<glyph name="at" format="2">
  <advance width="600"/>
  <unicode hex="0040"/>
  <outline>
    <contour>
      <point x="375" y="-243" type="curve" smooth="yes"/>
      <point x="426" y="-243"/>
      <point x="462" y="-236"/>
      <point x="497" y="-218" type="curve"/>
      <point x="497" y="-38" type="line"/>
      <point x="465" y="-56"/>
      <point x="428" y="-63"/>
      <point x="375" y="-63" type="curve" smooth="yes"/>
      <point x="185" y="-63"/>
      <point x="105" y="134"/>
      <point x="105" y="598" type="curve" smooth="yes"/>
      <point x="105" y="1040"/>
      <point x="176" y="1259"/>
      <point x="319" y="1259" type="curve" smooth="yes"/>
      <point x="433" y="1259"/>
      <point x="493" y="1135"/>
      <point x="493" y="887" type="curve" smooth="yes"/>
      <point x="493" y="769"/>
      <point x="493" y="667"/>
      <point x="493" y="524" type="curve"/>
      <point x="600" y="524" type="line"/>
      <point x="600" y="669"/>
      <point x="600" y="773"/>
      <point x="600" y="893" type="curve" smooth="yes"/>
      <point x="600" y="1258"/>
      <point x="506" y="1439"/>
      <point x="319" y="1439" type="curve" smooth="yes"/>
      <point x="106" y="1439"/>
      <point x="0" y="1160"/>
      <point x="0" y="598" type="curve" smooth="yes"/>
      <point x="0" y="8"/>
      <point x="112" y="-243"/>
    </contour>
    <contour>
      <point x="353" y="148" type="curve" smooth="yes"/>
      <point x="422" y="148"/>
      <point x="470" y="232"/>
      <point x="485" y="380" type="curve"/>
      <point x="531" y="380" type="line"/>
      <point x="531" y="857" type="line"/>
      <point x="485" y="857" type="line"/>
      <point x="467" y="1005"/>
      <point x="418" y="1089"/>
      <point x="355" y="1089" type="curve" smooth="yes"/>
      <point x="243" y="1089"/>
      <point x="179" y="935"/>
      <point x="179" y="619" type="curve" smooth="yes"/>
      <point x="179" y="320"/>
      <point x="243" y="148"/>
    </contour>
    <contour>
      <point x="390" y="338" type="curve" smooth="yes"/>
      <point x="327" y="338"/>
      <point x="291" y="440"/>
      <point x="291" y="619" type="curve" smooth="yes"/>
      <point x="291" y="814"/>
      <point x="330" y="899"/>
      <point x="398" y="899" type="curve" smooth="yes"/>
      <point x="459" y="899"/>
      <point x="493" y="799"/>
      <point x="493" y="570" type="curve" smooth="yes"/>
      <point x="493" y="422"/>
      <point x="456" y="338"/>
    </contour>
    <contour>
      <point x="493" y="168" type="line"/>
      <point x="600" y="168" type="line"/>
      <point x="600" y="769" type="line"/>
      <point x="493" y="769" type="line"/>
    </contour>
  </outline>
</glyph>
<glyph name="A" format="2">
  <advance width="600"/>
  <unicode hex="0041"/>
  <anchor x="300" y="0" name="bottom"/>
  <anchor x="561" y="10" name="ogonek"/>
  <anchor x="300" y="1420" name="top"/>
  <outline>
    <contour>
      <point x="25" y="0" type="line"/>
      <point x="189" y="0" type="line"/>
      <point x="285" y="1248" type="line"/>
      <point x="315" y="1248" type="line"/>
      <point x="411" y="0" type="line"/>
      <point x="575" y="0" type="line"/>
      <point x="438" y="1420" type="line"/>
      <point x="162" y="1420" type="line"/>
    </contour>
    <contour>
      <point x="102" y="296" type="line"/>
      <point x="493" y="296" type="line"/>
      <point x="493" y="456" type="line"/>
      <point x="102" y="456" type="line"/>
    </contour>
  </outline>
</glyph>
<glyph name="B" format="2">
  <advance width="600"/>
  <unicode hex="0042"/>
  <anchor x="281" y="0" name="bottom"/>
  <anchor x="281" y="1420" name="top"/>
  <outline>
    <contour>
      <point x="221" y="0" type="line"/>
      <point x="328" y="0" type="line" smooth="yes"/>
      <point x="489" y="0"/>
      <point x="581" y="146"/>
      <point x="581" y="400" type="curve" smooth="yes"/>
      <point x="581" y="617"/>
      <point x="513" y="741"/>
      <point x="393" y="741" type="curve" smooth="yes"/>
      <point x="211" y="741" type="line"/>
      <point x="223" y="670" type="line"/>
      <point x="280" y="670" type="line" smooth="yes"/>
      <point x="367" y="670"/>
      <point x="417" y="579"/>
      <point x="417" y="420" type="curve" smooth="yes"/>
      <point x="417" y="255"/>
      <point x="370" y="160"/>
      <point x="290" y="160" type="curve" smooth="yes"/>
      <point x="221" y="160" type="line"/>
    </contour>
    <contour>
      <point x="70" y="0" type="line"/>
      <point x="228" y="0" type="line"/>
      <point x="228" y="1420" type="line"/>
      <point x="70" y="1420" type="line"/>
    </contour>
    <contour>
      <point x="178" y="698" type="line"/>
      <point x="361" y="698" type="line"/>
      <point x="361" y="796" type="line"/>
      <point x="178" y="796" type="line"/>
    </contour>
    <contour>
      <point x="221" y="759" type="line"/>
      <point x="345" y="759" type="line" smooth="yes"/>
      <point x="472" y="759"/>
      <point x="543" y="867"/>
      <point x="543" y="1060" type="curve" smooth="yes"/>
      <point x="543" y="1290"/>
      <point x="445" y="1420"/>
      <point x="273" y="1420" type="curve" smooth="yes"/>
      <point x="211" y="1420" type="line"/>
      <point x="223" y="1260" type="line"/>
      <point x="265" y="1260" type="line" smooth="yes"/>
      <point x="343" y="1260"/>
      <point x="379" y="1181"/>
      <point x="379" y="1040" type="curve" smooth="yes"/>
      <point x="379" y="905"/>
      <point x="346" y="830"/>
      <point x="275" y="830" type="curve" smooth="yes"/>
      <point x="221" y="830" type="line"/>
    </contour>
  </outline>
</glyph>
<glyph name="C" format="2">
  <advance width="600"/>
  <unicode hex="0043"/>
  <anchor x="335" y="0" name="bottom"/>
  <anchor x="350" y="1420" name="top"/>
  <outline>
    <contour>
      <point x="374" y="-20" type="curve" smooth="yes"/>
      <point x="443" y="-20"/>
      <point x="511" y="-5"/>
      <point x="577" y="27" type="curve"/>
      <point x="550" y="186" type="line"/>
      <point x="504" y="161"/>
      <point x="459" y="150"/>
      <point x="415" y="150" type="curve" smooth="yes"/>
      <point x="270" y="150"/>
      <point x="204" y="330"/>
      <point x="204" y="722" type="curve" smooth="yes"/>
      <point x="204" y="1098"/>
      <point x="255" y="1270"/>
      <point x="367" y="1270" type="curve" smooth="yes"/>
      <point x="401" y="1270"/>
      <point x="428" y="1248"/>
      <point x="453" y="1199" type="curve"/>
      <point x="597" y="1302" type="line"/>
      <point x="552" y="1397"/>
      <point x="485" y="1440"/>
      <point x="381" y="1440" type="curve" smooth="yes"/>
      <point x="147" y="1440"/>
      <point x="40" y="1211"/>
      <point x="40" y="712" type="curve" smooth="yes"/>
      <point x="40" y="210"/>
      <point x="145" y="-20"/>
    </contour>
  </outline>
</glyph>
<glyph name="D" format="2">
  <advance width="600"/>
  <unicode hex="0044"/>
  <anchor x="265" y="0" name="bottom"/>
  <anchor x="265" y="710" name="center"/>
  <anchor x="265" y="1420" name="top"/>
  <outline>
    <contour>
      <point x="204" y="0" type="line"/>
      <point x="267" y="0" type="line" smooth="yes"/>
      <point x="468" y="0"/>
      <point x="560" y="217"/>
      <point x="560" y="690" type="curve" smooth="yes"/>
      <point x="560" y="1191"/>
      <point x="468" y="1420"/>
      <point x="267" y="1420" type="curve" smooth="yes"/>
      <point x="184" y="1420" type="line"/>
      <point x="208" y="1260" type="line"/>
      <point x="267" y="1260" type="line" smooth="yes"/>
      <point x="355" y="1260"/>
      <point x="396" y="1081"/>
      <point x="396" y="690" type="curve" smooth="yes"/>
      <point x="396" y="327"/>
      <point x="355" y="160"/>
      <point x="267" y="160" type="curve" smooth="yes"/>
      <point x="204" y="160" type="line"/>
    </contour>
    <contour>
      <point x="60" y="0" type="line"/>
      <point x="218" y="0" type="line"/>
      <point x="218" y="1420" type="line"/>
      <point x="60" y="1420" type="line"/>
    </contour>
  </outline>
</glyph>
<glyph name="E" format="2">
  <advance width="600"/>
  <unicode hex="0045"/>
  <anchor x="314" y="0" name="bottom"/>
  <anchor x="519" y="10" name="ogonek"/>
  <anchor x="314" y="1420" name="top"/>
  <anchor x="36" y="1420" name="topleft"/>
  <outline>
    <contour>
      <point x="70" y="0" type="line"/>
      <point x="228" y="0" type="line"/>
      <point x="228" y="1420" type="line"/>
      <point x="70" y="1420" type="line"/>
    </contour>
    <contour>
      <point x="70" y="0" type="line"/>
      <point x="550" y="0" type="line"/>
      <point x="550" y="160" type="line"/>
      <point x="70" y="160" type="line"/>
    </contour>
    <contour>
      <point x="70" y="631" type="line"/>
      <point x="468" y="631" type="line"/>
      <point x="468" y="791" type="line"/>
      <point x="70" y="791" type="line"/>
    </contour>
    <contour>
      <point x="70" y="1260" type="line"/>
      <point x="550" y="1260" type="line"/>
      <point x="550" y="1420" type="line"/>
      <point x="70" y="1420" type="line"/>
    </contour>
  </outline>
</glyph>
<glyph name="F" format="2">
  <advance width="600"/>
  <unicode hex="0046"/>
  <anchor x="328" y="0" name="bottom"/>
  <anchor x="328" y="1420" name="top"/>
  <outline>
    <contour>
      <point x="70" y="0" type="line"/>
      <point x="228" y="0" type="line"/>
      <point x="228" y="1420" type="line"/>
      <point x="70" y="1420" type="line"/>
    </contour>
    <contour>
      <point x="70" y="571" type="line"/>
      <point x="492" y="571" type="line"/>
      <point x="492" y="731" type="line"/>
      <point x="70" y="731" type="line"/>
    </contour>
    <contour>
      <point x="70" y="1260" type="line"/>
      <point x="550" y="1260" type="line"/>
      <point x="550" y="1420" type="line"/>
      <point x="70" y="1420" type="line"/>
    </contour>
  </outline>
</glyph>
<glyph name="G" format="2">
  <advance width="600"/>
  <unicode hex="0047"/>
  <anchor x="349" y="0" name="bottom"/>
  <anchor x="338" y="1420" name="top"/>
  <outline>
    <contour>
      <point x="354" y="-20" type="curve" smooth="yes"/>
      <point x="450" y="-20"/>
      <point x="533" y="19"/>
      <point x="569" y="40" type="curve"/>
      <point x="515" y="200" type="line"/>
      <point x="478" y="180"/>
      <point x="432" y="150"/>
      <point x="366" y="150" type="curve" smooth="yes"/>
      <point x="250" y="150"/>
      <point x="204" y="313"/>
      <point x="204" y="722" type="curve" smooth="yes"/>
      <point x="204" y="1113"/>
      <point x="250" y="1270"/>
      <point x="366" y="1270" type="curve" smooth="yes"/>
      <point x="402" y="1270"/>
      <point x="434" y="1236"/>
      <point x="455" y="1179" type="curve"/>
      <point x="584" y="1272" type="line"/>
      <point x="542" y="1378"/>
      <point x="466" y="1440"/>
      <point x="360" y="1440" type="curve" smooth="yes"/>
      <point x="131" y="1440"/>
      <point x="40" y="1232"/>
      <point x="40" y="712" type="curve" smooth="yes"/>
      <point x="40" y="189"/>
      <point x="130" y="-20"/>
    </contour>
    <contour>
      <point x="411" y="40" type="line"/>
      <point x="569" y="40" type="line"/>
      <point x="569" y="710" type="line"/>
      <point x="411" y="710" type="line"/>
    </contour>
    <contour>
      <point x="306" y="550" type="line"/>
      <point x="566" y="550" type="line"/>
      <point x="566" y="710" type="line"/>
      <point x="306" y="710" type="line"/>
    </contour>
  </outline>
</glyph>
<glyph name="H" format="2">
  <advance width="600"/>
  <unicode hex="0048"/>
  <anchor x="300" y="0" name="bottom"/>
  <anchor x="300" y="710" name="center"/>
  <anchor x="300" y="1420" name="top"/>
  <anchor x="23" y="1420" name="topleft"/>
  <outline>
    <contour>
      <point x="372" y="0" type="line"/>
      <point x="530" y="0" type="line"/>
      <point x="530" y="1420" type="line"/>
      <point x="372" y="1420" type="line"/>
    </contour>
    <contour>
      <point x="70" y="0" type="line"/>
      <point x="228" y="0" type="line"/>
      <point x="228" y="1420" type="line"/>
      <point x="70" y="1420" type="line"/>
    </contour>
    <contour>
      <point x="88" y="627" type="line"/>
      <point x="514" y="627" type="line"/>
      <point x="514" y="787" type="line"/>
      <point x="88" y="787" type="line"/>
    </contour>
  </outline>
</glyph>
<glyph name="I" format="2">
  <advance width="600"/>
  <unicode hex="0049"/>
  <anchor x="300" y="0" name="bottom"/>
  <anchor x="300" y="10" name="ogonek"/>
  <anchor x="300" y="1420" name="top"/>
  <anchor x="65" y="1420" name="topleft"/>
  <outline>
    <contour>
      <point x="221" y="0" type="line"/>
      <point x="379" y="0" type="line"/>
      <point x="379" y="1420" type="line"/>
      <point x="221" y="1420" type="line"/>
    </contour>
    <contour>
      <point x="48" y="0" type="line"/>
      <point x="552" y="0" type="line"/>
      <point x="552" y="160" type="line"/>
      <point x="48" y="160" type="line"/>
    </contour>
    <contour>
      <point x="48" y="1260" type="line"/>
      <point x="552" y="1260" type="line"/>
      <point x="552" y="1420" type="line"/>
      <point x="48" y="1420" type="line"/>
    </contour>
  </outline>
</glyph>
<glyph name="J" format="2">
  <advance width="600"/>
  <unicode hex="004A"/>
  <anchor x="300" y="0" name="bottom"/>
  <anchor x="391" y="1420" name="top"/>
  <outline>
    <contour>
      <point x="288" y="-20" type="curve" smooth="yes"/>
      <point x="472" y="-20"/>
      <point x="536" y="79"/>
      <point x="536" y="365" type="curve" smooth="yes"/>
      <point x="536" y="1420" type="line"/>
      <point x="378" y="1420" type="line"/>
      <point x="378" y="365" type="line" smooth="yes"/>
      <point x="378" y="205"/>
      <point x="355" y="150"/>
      <point x="290" y="150" type="curve" smooth="yes"/>
      <point x="222" y="150"/>
      <point x="198" y="205"/>
      <point x="198" y="365" type="curve"/>
      <point x="40" y="365" type="line"/>
      <point x="40" y="79"/>
      <point x="104" y="-20"/>
    </contour>
    <contour>
      <point x="198" y="1260" type="line"/>
      <point x="463" y="1260" type="line"/>
      <point x="463" y="1420" type="line"/>
      <point x="198" y="1420" type="line"/>
    </contour>
  </outline>
</glyph>
<glyph name="K" format="2">
  <advance width="600"/>
  <unicode hex="004B"/>
  <anchor x="310" y="0" name="bottom"/>
  <anchor x="310" y="1420" name="top"/>
  <outline>
    <contour>
      <point x="175" y="500" type="line"/>
      <point x="461" y="500"/>
      <point x="560" y="737"/>
      <point x="560" y="1420" type="curve"/>
      <point x="402" y="1420" type="line"/>
      <point x="402" y="855"/>
      <point x="346" y="660"/>
      <point x="184" y="660" type="curve"/>
    </contour>
    <contour>
      <point x="429" y="0" type="line"/>
      <point x="594" y="0" type="line"/>
      <point x="419" y="696" type="line"/>
      <point x="292" y="594" type="line"/>
    </contour>
    <contour>
      <point x="62" y="0" type="line"/>
      <point x="220" y="0" type="line"/>
      <point x="220" y="1420" type="line"/>
      <point x="62" y="1420" type="line"/>
    </contour>
  </outline>
</glyph>
<glyph name="L" format="2">
  <advance width="600"/>
  <unicode hex="004C"/>
  <anchor x="309" y="0" name="bottom"/>
  <anchor x="300" y="710" name="center"/>
  <anchor x="149" y="1420" name="top"/>
  <anchor x="565" y="1420" name="topright"/>
  <outline>
    <contour>
      <point x="70" y="0" type="line"/>
      <point x="228" y="0" type="line"/>
      <point x="228" y="1420" type="line"/>
      <point x="70" y="1420" type="line"/>
    </contour>
    <contour>
      <point x="70" y="0" type="line"/>
      <point x="544" y="0" type="line"/>
      <point x="544" y="160" type="line"/>
      <point x="70" y="160" type="line"/>
    </contour>
  </outline>
</glyph>
<glyph name="M" format="2">
  <advance width="600"/>
  <unicode hex="004D"/>
  <anchor x="300" y="0" name="bottom"/>
  <anchor x="300" y="1420" name="top"/>
  <outline>
    <contour>
      <point x="280" y="580" type="line"/>
      <point x="358" y="580" type="line"/>
      <point x="399" y="1260" type="line"/>
      <point x="432" y="1260" type="line"/>
      <point x="422" y="1420" type="line"/>
      <point x="347" y="1420" type="line"/>
      <point x="305" y="740" type="line"/>
      <point x="297" y="740" type="line"/>
    </contour>
    <contour>
      <point x="50" y="0" type="line"/>
      <point x="182" y="0" type="line"/>
      <point x="182" y="1420" type="line"/>
      <point x="50" y="1420" type="line"/>
    </contour>
    <contour>
      <point x="242" y="580" type="line"/>
      <point x="316" y="580" type="line"/>
      <point x="300" y="740" type="line"/>
      <point x="295" y="740" type="line"/>
      <point x="253" y="1420" type="line"/>
      <point x="175" y="1420" type="line"/>
      <point x="164" y="1260" type="line"/>
      <point x="201" y="1260" type="line"/>
    </contour>
    <contour>
      <point x="418" y="0" type="line"/>
      <point x="550" y="0" type="line"/>
      <point x="550" y="1420" type="line"/>
      <point x="418" y="1420" type="line"/>
    </contour>
  </outline>
</glyph>
<glyph name="N" format="2">
  <advance width="600"/>
  <unicode hex="004E"/>
  <anchor x="300" y="0" name="bottom"/>
  <anchor x="300" y="1420" name="top"/>
  <outline>
    <contour>
      <point x="311" y="0" type="line"/>
      <point x="406" y="0" type="line"/>
      <point x="406" y="160" type="line"/>
      <point x="372" y="160" type="line"/>
      <point x="289" y="1420" type="line"/>
      <point x="170" y="1420" type="line"/>
      <point x="170" y="1260" type="line"/>
      <point x="228" y="1260" type="line"/>
    </contour>
    <contour>
      <point x="70" y="0" type="line"/>
      <point x="205" y="0" type="line"/>
      <point x="205" y="1420" type="line"/>
      <point x="70" y="1420" type="line"/>
    </contour>
    <contour>
      <point x="395" y="0" type="line"/>
      <point x="530" y="0" type="line"/>
      <point x="530" y="1420" type="line"/>
      <point x="395" y="1420" type="line"/>
    </contour>
  </outline>
</glyph>
<glyph name="O" format="2">
  <advance width="600"/>
  <unicode hex="004F"/>
  <anchor x="300" y="0" name="bottom"/>
  <anchor x="300" y="710" name="center"/>
  <anchor x="612" y="10" name="ogonek"/>
  <anchor x="300" y="1420" name="top"/>
  <anchor x="1" y="1420" name="topleft"/>
  <anchor x="599" y="1420" name="topright"/>
  <outline>
    <contour>
      <point x="300" y="-20" type="curve" smooth="yes"/>
      <point x="493" y="-20"/>
      <point x="560" y="165"/>
      <point x="560" y="700" type="curve" smooth="yes"/>
      <point x="560" y="1250"/>
      <point x="493" y="1440"/>
      <point x="300" y="1440" type="curve" smooth="yes"/>
      <point x="107" y="1440"/>
      <point x="40" y="1250"/>
      <point x="40" y="700" type="curve" smooth="yes"/>
      <point x="40" y="165"/>
      <point x="107" y="-20"/>
    </contour>
    <contour>
      <point x="300" y="150" type="curve" smooth="yes"/>
      <point x="229" y="150"/>
      <point x="204" y="291"/>
      <point x="204" y="700" type="curve" smooth="yes"/>
      <point x="204" y="1123"/>
      <point x="229" y="1270"/>
      <point x="300" y="1270" type="curve" smooth="yes"/>
      <point x="371" y="1270"/>
      <point x="396" y="1123"/>
      <point x="396" y="700" type="curve" smooth="yes"/>
      <point x="396" y="291"/>
      <point x="371" y="150"/>
    </contour>
  </outline>
</glyph>
<glyph name="P" format="2">
  <advance width="600"/>
  <unicode hex="0050"/>
  <anchor x="282" y="0" name="bottom"/>
  <anchor x="286" y="1420" name="top"/>
  <outline>
    <contour>
      <point x="217" y="440" type="line"/>
      <point x="286" y="440" type="line" smooth="yes"/>
      <point x="461" y="440"/>
      <point x="560" y="615"/>
      <point x="560" y="950" type="curve" smooth="yes"/>
      <point x="560" y="1259"/>
      <point x="461" y="1420"/>
      <point x="286" y="1420" type="curve" smooth="yes"/>
      <point x="219" y="1420" type="line"/>
      <point x="219" y="1260" type="line"/>
      <point x="286" y="1260" type="line" smooth="yes"/>
      <point x="356" y="1260"/>
      <point x="396" y="1154"/>
      <point x="396" y="950" type="curve" smooth="yes"/>
      <point x="396" y="720"/>
      <point x="356" y="600"/>
      <point x="286" y="600" type="curve" smooth="yes"/>
      <point x="217" y="600" type="line"/>
    </contour>
    <contour>
      <point x="70" y="0" type="line"/>
      <point x="228" y="0" type="line"/>
      <point x="228" y="1420" type="line"/>
      <point x="70" y="1420" type="line"/>
    </contour>
  </outline>
</glyph>
<glyph name="Q" format="2">
  <advance width="600"/>
  <unicode hex="0051"/>
  <anchor x="304" y="-460" name="bottom"/>
  <anchor x="300" y="710" name="center"/>
  <anchor x="612" y="10" name="ogonek"/>
  <anchor x="300" y="1420" name="top"/>
  <anchor x="1" y="1420" name="topleft"/>
  <anchor x="599" y="1420" name="topright"/>
  <outline>
    <contour>
      <point x="462" y="-460" type="curve" smooth="yes"/>
      <point x="514" y="-460" type="line"/>
      <point x="534" y="-300" type="line"/>
      <point x="462" y="-300" type="line" smooth="yes"/>
      <point x="399" y="-300"/>
      <point x="368" y="-251"/>
      <point x="368" y="-153" type="curve" smooth="yes"/>
      <point x="368" y="62" type="line"/>
      <point x="210" y="62" type="line"/>
      <point x="210" y="-151" type="line" smooth="yes"/>
      <point x="210" y="-358"/>
      <point x="295" y="-460"/>
    </contour>
    <component base="O"/>
  </outline>
</glyph>
<glyph name="R" format="2">
  <advance width="600"/>
  <unicode hex="0052"/>
  <anchor x="305" y="0" name="bottom"/>
  <anchor x="280" y="1420" name="top"/>
  <outline>
    <contour>
      <point x="221" y="540" type="line"/>
      <point x="287" y="540" type="line" smooth="yes"/>
      <point x="461" y="540"/>
      <point x="560" y="704"/>
      <point x="560" y="990" type="curve" smooth="yes"/>
      <point x="560" y="1264"/>
      <point x="461" y="1420"/>
      <point x="287" y="1420" type="curve" smooth="yes"/>
      <point x="211" y="1420" type="line"/>
      <point x="223" y="1260" type="line"/>
      <point x="287" y="1260" type="line" smooth="yes"/>
      <point x="352" y="1260"/>
      <point x="390" y="1155"/>
      <point x="390" y="970" type="curve" smooth="yes"/>
      <point x="390" y="799"/>
      <point x="352" y="700"/>
      <point x="287" y="700" type="curve" smooth="yes"/>
      <point x="221" y="700" type="line"/>
    </contour>
    <contour>
      <point x="70" y="0" type="line"/>
      <point x="227" y="0" type="line"/>
      <point x="227" y="1420" type="line"/>
      <point x="70" y="1420" type="line"/>
    </contour>
    <contour>
      <point x="409" y="0" type="line"/>
      <point x="581" y="0" type="line"/>
      <point x="439" y="668" type="line"/>
      <point x="291" y="668" type="line"/>
    </contour>
  </outline>
</glyph>
<glyph name="S" format="2">
  <advance width="600"/>
  <unicode hex="0053"/>
  <anchor x="304" y="0" name="bottom"/>
  <anchor x="309" y="1420" name="top"/>
  <outline>
    <contour>
      <point x="268" y="-20" type="curve" smooth="yes"/>
      <point x="447" y="-20"/>
      <point x="540" y="88"/>
      <point x="540" y="297" type="curve" smooth="yes"/>
      <point x="540" y="418"/>
      <point x="505" y="515"/>
      <point x="419" y="680" type="curve" smooth="yes"/>
      <point x="323" y="864" type="line" smooth="yes"/>
      <point x="270" y="965"/>
      <point x="215" y="1023"/>
      <point x="215" y="1141" type="curve" smooth="yes"/>
      <point x="215" y="1225"/>
      <point x="255" y="1270"/>
      <point x="331" y="1270" type="curve" smooth="yes"/>
      <point x="385" y="1270"/>
      <point x="436" y="1250"/>
      <point x="493" y="1205" type="curve"/>
      <point x="542" y="1354" type="line"/>
      <point x="465" y="1413"/>
      <point x="393" y="1440"/>
      <point x="311" y="1440" type="curve" smooth="yes"/>
      <point x="141" y="1440"/>
      <point x="52" y="1337"/>
      <point x="52" y="1140" type="curve" smooth="yes"/>
      <point x="52" y="996"/>
      <point x="107" y="915"/>
      <point x="178" y="783" type="curve" smooth="yes"/>
      <point x="280" y="595" type="line" smooth="yes"/>
      <point x="354" y="459"/>
      <point x="376" y="382"/>
      <point x="376" y="297" type="curve" smooth="yes"/>
      <point x="376" y="201"/>
      <point x="328" y="150"/>
      <point x="236" y="150" type="curve" smooth="yes"/>
      <point x="179" y="150"/>
      <point x="122" y="165"/>
      <point x="64" y="195" type="curve"/>
      <point x="55" y="18" type="line"/>
      <point x="114" y="-6"/>
      <point x="184" y="-20"/>
    </contour>
  </outline>
</glyph>
<glyph name="T" format="2">
  <advance width="600"/>
  <unicode hex="0054"/>
  <anchor x="297" y="0" name="bottom"/>
  <anchor x="300" y="710" name="center"/>
  <anchor x="300" y="1420" name="top"/>
  <outline>
    <contour>
      <point x="221" y="0" type="line"/>
      <point x="379" y="0" type="line"/>
      <point x="379" y="1420" type="line"/>
      <point x="221" y="1420" type="line"/>
    </contour>
    <contour>
      <point x="20" y="1260" type="line"/>
      <point x="580" y="1260" type="line"/>
      <point x="580" y="1420" type="line"/>
      <point x="20" y="1420" type="line"/>
    </contour>
  </outline>
</glyph>
<glyph name="U" format="2">
  <advance width="600"/>
  <unicode hex="0055"/>
  <anchor x="300" y="0" name="bottom"/>
  <anchor x="513" y="10" name="ogonek"/>
  <anchor x="300" y="1420" name="top"/>
  <anchor x="557" y="1420" name="topright"/>
  <outline>
    <contour>
      <point x="298" y="-20" type="curve" smooth="yes"/>
      <point x="464" y="-20"/>
      <point x="540" y="79"/>
      <point x="540" y="294" type="curve" smooth="yes"/>
      <point x="540" y="1420" type="line"/>
      <point x="372" y="1420" type="line"/>
      <point x="372" y="294" type="line" smooth="yes"/>
      <point x="372" y="195"/>
      <point x="349" y="150"/>
      <point x="300" y="150" type="curve" smooth="yes"/>
      <point x="251" y="150"/>
      <point x="228" y="195"/>
      <point x="228" y="294" type="curve" smooth="yes"/>
      <point x="228" y="1420" type="line"/>
      <point x="60" y="1420" type="line"/>
      <point x="60" y="294" type="line" smooth="yes"/>
      <point x="60" y="79"/>
      <point x="135" y="-20"/>
    </contour>
  </outline>
</glyph>
<glyph name="V" format="2">
  <advance width="600"/>
  <unicode hex="0056"/>
  <anchor x="300" y="0" name="bottom"/>
  <anchor x="300" y="1420" name="top"/>
  <outline>
    <contour>
      <point x="165" y="0" type="line"/>
      <point x="435" y="0" type="line"/>
      <point x="615" y="1420" type="line"/>
      <point x="447" y="1420" type="line"/>
      <point x="305" y="160" type="line"/>
      <point x="295" y="160" type="line"/>
      <point x="153" y="1420" type="line"/>
      <point x="-15" y="1420" type="line"/>
    </contour>
  </outline>
</glyph>
<glyph name="W" format="2">
  <advance width="600"/>
  <unicode hex="0057"/>
  <anchor x="300" y="0" name="bottom"/>
  <anchor x="300" y="1420" name="top"/>
  <outline>
    <contour>
      <point x="41" y="0" type="line"/>
      <point x="268" y="0" type="line"/>
      <point x="290" y="900" type="line"/>
      <point x="326" y="900" type="line"/>
      <point x="376" y="1060" type="line"/>
      <point x="225" y="1060" type="line"/>
      <point x="177" y="160" type="line"/>
      <point x="151" y="160" type="line"/>
      <point x="170" y="1420" type="line"/>
      <point x="0" y="1420" type="line"/>
    </contour>
    <contour>
      <point x="332" y="0" type="line"/>
      <point x="559" y="0" type="line"/>
      <point x="600" y="1420" type="line"/>
      <point x="430" y="1420" type="line"/>
      <point x="449" y="160" type="line"/>
      <point x="423" y="160" type="line"/>
      <point x="376" y="1060" type="line"/>
      <point x="225" y="1060" type="line"/>
      <point x="274" y="900" type="line"/>
      <point x="310" y="900" type="line"/>
    </contour>
  </outline>
</glyph>
<glyph name="X" format="2">
  <advance width="600"/>
  <unicode hex="0058"/>
  <anchor x="300" y="0" name="bottom"/>
  <anchor x="300" y="1420" name="top"/>
  <outline>
    <contour>
      <point x="427" y="0" type="line"/>
      <point x="595" y="0" type="line"/>
      <point x="342" y="746" type="line"/>
      <point x="324" y="819" type="line"/>
      <point x="173" y="1420" type="line"/>
      <point x="5" y="1420" type="line"/>
      <point x="264" y="636" type="line"/>
      <point x="277" y="585" type="line"/>
    </contour>
    <contour>
      <point x="5" y="0" type="line"/>
      <point x="173" y="0" type="line"/>
      <point x="321" y="582" type="line"/>
      <point x="335" y="636" type="line"/>
      <point x="595" y="1420" type="line"/>
      <point x="427" y="1420" type="line"/>
      <point x="275" y="819" type="line"/>
      <point x="257" y="746" type="line"/>
    </contour>
  </outline>
</glyph>
<glyph name="Y" format="2">
  <advance width="600"/>
  <unicode hex="0059"/>
  <anchor x="300" y="0" name="bottom"/>
  <anchor x="300" y="1420" name="top"/>
  <anchor x="-25" y="1420" name="topleft"/>
  <outline>
    <contour>
      <point x="229" y="474" type="line"/>
      <point x="371" y="474" type="line"/>
      <point x="635" y="1420" type="line"/>
      <point x="467" y="1420" type="line"/>
      <point x="305" y="710" type="line"/>
      <point x="295" y="710" type="line"/>
      <point x="133" y="1420" type="line"/>
      <point x="-35" y="1420" type="line"/>
    </contour>
    <contour>
      <point x="221" y="0" type="line"/>
      <point x="379" y="0" type="line"/>
      <point x="379" y="700" type="line"/>
      <point x="221" y="700" type="line"/>
    </contour>
  </outline>
</glyph>
<glyph name="Z" format="2">
  <advance width="600"/>
  <unicode hex="005A"/>
  <anchor x="300" y="0" name="bottom"/>
  <anchor x="300" y="710" name="center"/>
  <anchor x="300" y="1420" name="top"/>
  <outline>
    <contour>
      <point x="211" y="68" type="line"/>
      <point x="511" y="1260" type="line"/>
      <point x="381" y="1362" type="line"/>
      <point x="80" y="160" type="line"/>
    </contour>
    <contour>
      <point x="80" y="0" type="line"/>
      <point x="520" y="0" type="line"/>
      <point x="520" y="160" type="line"/>
      <point x="80" y="160" type="line"/>
    </contour>
    <contour>
      <point x="80" y="1260" type="line"/>
      <point x="511" y="1260" type="line"/>
      <point x="511" y="1420" type="line"/>
      <point x="80" y="1420" type="line"/>
    </contour>
  </outline>
</glyph>
<glyph name="bracketleft" format="2">
  <advance width="600"/>
  <unicode hex="005B"/>
  <outline>
    <contour>
      <point x="190" y="-214" type="line"/>
      <point x="348" y="-214" type="line"/>
      <point x="348" y="1634" type="line"/>
      <point x="190" y="1634" type="line"/>
    </contour>
    <contour>
      <point x="328" y="-214" type="line"/>
      <point x="510" y="-214" type="line"/>
      <point x="510" y="-54" type="line"/>
      <point x="328" y="-54" type="line"/>
    </contour>
    <contour>
      <point x="328" y="1474" type="line"/>
      <point x="510" y="1474" type="line"/>
      <point x="510" y="1634" type="line"/>
      <point x="328" y="1634" type="line"/>
    </contour>
  </outline>
</glyph>
<glyph name="backslash" format="2">
  <advance width="600"/>
  <unicode hex="005C"/>
  <outline>
    <contour>
      <point x="424" y="-190" type="line"/>
      <point x="573" y="-190" type="line"/>
      <point x="186" y="1610" type="line"/>
      <point x="37" y="1610" type="line"/>
    </contour>
  </outline>
</glyph>
<glyph name="bracketright" format="2">
  <advance width="600"/>
  <unicode hex="005D"/>
  <outline>
    <contour>
      <point x="252" y="-214" type="line"/>
      <point x="410" y="-214" type="line"/>
      <point x="410" y="1634" type="line"/>
      <point x="252" y="1634" type="line"/>
    </contour>
    <contour>
      <point x="90" y="-214" type="line"/>
      <point x="272" y="-214" type="line"/>
      <point x="272" y="-54" type="line"/>
      <point x="90" y="-54" type="line"/>
    </contour>
    <contour>
      <point x="90" y="1474" type="line"/>
      <point x="272" y="1474" type="line"/>
      <point x="272" y="1634" type="line"/>
      <point x="90" y="1634" type="line"/>
    </contour>
  </outline>
</glyph>
<glyph name="asciicircum" format="2">
  <advance width="600"/>
  <unicode hex="005E"/>
  <outline>
    <contour>
      <point x="75" y="820" type="line"/>
      <point x="217" y="820" type="line"/>
      <point x="295" y="1260" type="line"/>
      <point x="305" y="1260" type="line"/>
      <point x="383" y="820" type="line"/>
      <point x="525" y="820" type="line"/>
      <point x="382" y="1420" type="line"/>
      <point x="218" y="1420" type="line"/>
    </contour>
  </outline>
</glyph>
<glyph name="a" format="2">
  <advance width="600"/>
  <unicode hex="0061"/>
  <anchor x="300" y="0" name="bottom"/>
  <anchor x="538" y="10" name="ogonek"/>
  <anchor x="289" y="1060" name="top"/>
  <outline>
    <contour>
      <point x="399" y="-10" type="line"/>
      <point x="605" y="0" type="line"/>
      <point x="605" y="140" type="line"/>
      <point x="533" y="162" type="line"/>
      <point x="533" y="634" type="line" smooth="yes"/>
      <point x="533" y="907"/>
      <point x="437" y="1062"/>
      <point x="227" y="1067" type="curve" smooth="yes"/>
      <point x="101" y="1070" type="line"/>
      <point x="91" y="910" type="line"/>
      <point x="240" y="903" type="line" smooth="yes"/>
      <point x="324" y="899"/>
      <point x="375" y="832"/>
      <point x="375" y="666" type="curve" smooth="yes"/>
      <point x="375" y="392" type="line"/>
      <point x="376" y="304" type="line"/>
    </contour>
    <contour>
      <point x="213" y="-20" type="curve" smooth="yes"/>
      <point x="311" y="-20"/>
      <point x="364" y="73"/>
      <point x="366" y="256" type="curve"/>
      <point x="356" y="194" type="line"/>
      <point x="410" y="194" type="line"/>
      <point x="375" y="496" type="line"/>
      <point x="375" y="380" type="line"/>
      <point x="375" y="267"/>
      <point x="340" y="150"/>
      <point x="256" y="150" type="curve" smooth="yes"/>
      <point x="211" y="150"/>
      <point x="187" y="203"/>
      <point x="187" y="296" type="curve" smooth="yes"/>
      <point x="187" y="406"/>
      <point x="223" y="464"/>
      <point x="290" y="464" type="curve" smooth="yes"/>
      <point x="319" y="464"/>
      <point x="347" y="459"/>
      <point x="377" y="444" type="curve"/>
      <point x="414" y="588" type="line"/>
      <point x="361" y="620"/>
      <point x="329" y="634"/>
      <point x="271" y="634" type="curve" smooth="yes"/>
      <point x="115" y="634"/>
      <point x="23" y="510"/>
      <point x="23" y="286" type="curve" smooth="yes"/>
      <point x="23" y="91"/>
      <point x="93" y="-20"/>
    </contour>
  </outline>
</glyph>
<glyph name="b" format="2">
  <advance width="600"/>
  <unicode hex="0062"/>
  <anchor x="318" y="0" name="bottom"/>
  <anchor x="168" y="1540" name="top"/>
  <outline>
    <contour>
      <point x="239" y="-20" type="curve" smooth="yes"/>
      <point x="439" y="-20"/>
      <point x="552" y="207"/>
      <point x="552" y="600" type="curve" smooth="yes"/>
      <point x="552" y="905"/>
      <point x="490" y="1080"/>
      <point x="382" y="1080" type="curve" smooth="yes"/>
      <point x="303" y="1080"/>
      <point x="281" y="1013"/>
      <point x="259" y="908" type="curve"/>
      <point x="214" y="908" type="line"/>
      <point x="242" y="596" type="line"/>
      <point x="242" y="805"/>
      <point x="268" y="910"/>
      <point x="320" y="910" type="curve" smooth="yes"/>
      <point x="363" y="910"/>
      <point x="388" y="801"/>
      <point x="388" y="600" type="curve" smooth="yes"/>
      <point x="388" y="313"/>
      <point x="340" y="150"/>
      <point x="258" y="150" type="curve" smooth="yes"/>
      <point x="216" y="150"/>
      <point x="171" y="150"/>
      <point x="136" y="184" type="curve"/>
      <point x="84" y="0" type="line"/>
      <point x="136" y="-12"/>
      <point x="186" y="-20"/>
    </contour>
    <contour>
      <point x="84" y="0" type="line"/>
      <point x="242" y="18" type="line"/>
      <point x="243" y="1500" type="line"/>
      <point x="84" y="1500" type="line"/>
    </contour>
  </outline>
</glyph>
<glyph name="c" format="2">
  <advance width="600"/>
  <unicode hex="0063"/>
  <anchor x="323" y="0" name="bottom"/>
  <anchor x="323" y="1060" name="top"/>
  <outline>
    <contour>
      <point x="382" y="-20" type="curve" smooth="yes"/>
      <point x="430" y="-20"/>
      <point x="476" y="-14"/>
      <point x="519" y="5" type="curve"/>
      <point x="501" y="174" type="line"/>
      <point x="470" y="158"/>
      <point x="439" y="150"/>
      <point x="408" y="150" type="curve" smooth="yes"/>
      <point x="289" y="150"/>
      <point x="225" y="285"/>
      <point x="225" y="542" type="curve" smooth="yes"/>
      <point x="225" y="778"/>
      <point x="271" y="910"/>
      <point x="350" y="910" type="curve" smooth="yes"/>
      <point x="392" y="910"/>
      <point x="422" y="885"/>
      <point x="443" y="830" type="curve"/>
      <point x="554" y="934" type="line"/>
      <point x="508" y="1034"/>
      <point x="444" y="1080"/>
      <point x="354" y="1080" type="curve" smooth="yes"/>
      <point x="167" y="1080"/>
      <point x="61" y="877"/>
      <point x="61" y="532" type="curve" smooth="yes"/>
      <point x="61" y="170"/>
      <point x="174" y="-20"/>
    </contour>
  </outline>
</glyph>
<glyph name="d" format="2">
  <advance width="600"/>
  <unicode hex="0064"/>
  <anchor x="273" y="0" name="bottom"/>
  <anchor x="300" y="530" name="center"/>
  <anchor x="433" y="1500" name="top"/>
  <anchor x="553" y="1060" name="topright"/>
  <outline>
    <contour>
      <point x="233" y="-20" type="curve" smooth="yes"/>
      <point x="291" y="-20"/>
      <point x="332" y="36"/>
      <point x="340" y="131" type="curve"/>
      <point x="386" y="131" type="line"/>
      <point x="354" y="484" type="line"/>
      <point x="354" y="263"/>
      <point x="343" y="150"/>
      <point x="289" y="150" type="curve" smooth="yes"/>
      <point x="242" y="150"/>
      <point x="218" y="279"/>
      <point x="218" y="520" type="curve" smooth="yes"/>
      <point x="218" y="768"/>
      <point x="245" y="900"/>
      <point x="289" y="900" type="curve" smooth="yes"/>
      <point x="333" y="900"/>
      <point x="354" y="785"/>
      <point x="354" y="566" type="curve"/>
      <point x="382" y="919" type="line"/>
      <point x="338" y="919" type="line"/>
      <point x="328" y="1020"/>
      <point x="300" y="1080"/>
      <point x="233" y="1080" type="curve" smooth="yes"/>
      <point x="123" y="1080"/>
      <point x="56" y="889"/>
      <point x="56" y="520" type="curve" smooth="yes"/>
      <point x="56" y="165"/>
      <point x="123" y="-20"/>
    </contour>
    <contour>
      <point x="375" y="-10" type="line"/>
      <point x="512" y="0" type="line"/>
      <point x="512" y="1500" type="line"/>
      <point x="354" y="1500" type="line"/>
      <point x="354" y="188" type="line"/>
    </contour>
  </outline>
</glyph>
<glyph name="e" format="2">
  <advance width="600"/>
  <unicode hex="0065"/>
  <anchor x="309" y="0" name="bottom"/>
  <anchor x="501" y="10" name="ogonek"/>
  <anchor x="300" y="1060" name="top"/>
  <outline>
    <contour>
      <point x="366" y="-20" type="curve" smooth="yes"/>
      <point x="395" y="-20"/>
      <point x="438" y="-16"/>
      <point x="497" y="8" type="curve"/>
      <point x="483" y="178" type="line"/>
      <point x="444" y="159"/>
      <point x="412" y="150"/>
      <point x="377" y="150" type="curve" smooth="yes"/>
      <point x="280" y="150"/>
      <point x="226" y="286"/>
      <point x="226" y="542" type="curve" smooth="yes"/>
      <point x="226" y="778"/>
      <point x="253" y="910"/>
      <point x="298" y="910" type="curve" smooth="yes"/>
      <point x="340" y="910"/>
      <point x="366" y="798"/>
      <point x="366" y="596" type="curve"/>
      <point x="173" y="596" type="line"/>
      <point x="173" y="436" type="line"/>
      <point x="517" y="436" type="line"/>
      <point x="519" y="478"/>
      <point x="520" y="522"/>
      <point x="520" y="572" type="curve" smooth="yes"/>
      <point x="520" y="902"/>
      <point x="439" y="1080"/>
      <point x="297" y="1080" type="curve" smooth="yes"/>
      <point x="154" y="1080"/>
      <point x="72" y="877"/>
      <point x="72" y="532" type="curve" smooth="yes"/>
      <point x="72" y="177"/>
      <point x="178" y="-20"/>
    </contour>
  </outline>
</glyph>
<glyph name="f" format="2">
  <advance width="600"/>
  <unicode hex="0066"/>
  <anchor x="252" y="0" name="bottom"/>
  <anchor x="373" y="1500" name="top"/>
  <outline>
    <contour>
      <point x="176" y="0" type="line"/>
      <point x="330" y="0" type="line"/>
      <point x="330" y="1182" type="line" smooth="yes"/>
      <point x="330" y="1295"/>
      <point x="371" y="1350"/>
      <point x="455" y="1350" type="curve" smooth="yes"/>
      <point x="488" y="1350"/>
      <point x="524" y="1346"/>
      <point x="572" y="1336" type="curve"/>
      <point x="586" y="1500" type="line"/>
      <point x="543" y="1514"/>
      <point x="504" y="1520"/>
      <point x="458" y="1520" type="curve" smooth="yes"/>
      <point x="269" y="1520"/>
      <point x="176" y="1404"/>
      <point x="176" y="1172" type="curve" smooth="yes"/>
    </contour>
    <contour>
      <point x="10" y="666" type="line"/>
      <point x="547" y="666" type="line"/>
      <point x="547" y="826" type="line"/>
      <point x="10" y="826" type="line"/>
    </contour>
  </outline>
</glyph>
<glyph name="g" format="2">
  <advance width="600"/>
  <unicode hex="0067"/>
  <anchor x="273" y="-420" name="bottom"/>
  <anchor x="282" y="1060" name="top"/>
  <outline>
    <contour>
      <point x="106" y="-478" type="line"/>
      <point x="160" y="-473" type="line" smooth="yes"/>
      <point x="413" y="-456"/>
      <point x="512" y="-274"/>
      <point x="512" y="94" type="curve" smooth="yes"/>
      <point x="512" y="1060" type="line"/>
      <point x="365" y="1060" type="line"/>
      <point x="354" y="836" type="line"/>
      <point x="354" y="62" type="line"/>
      <point x="354" y="-185"/>
      <point x="295" y="-295"/>
      <point x="169" y="-303" type="curve" smooth="yes"/>
      <point x="100" y="-308" type="line"/>
    </contour>
    <contour>
      <point x="233" y="-20" type="curve" smooth="yes"/>
      <point x="291" y="-20"/>
      <point x="332" y="36"/>
      <point x="340" y="131" type="curve"/>
      <point x="386" y="131" type="line"/>
      <point x="354" y="484" type="line"/>
      <point x="354" y="263"/>
      <point x="343" y="150"/>
      <point x="289" y="150" type="curve" smooth="yes"/>
      <point x="242" y="150"/>
      <point x="218" y="279"/>
      <point x="218" y="520" type="curve" smooth="yes"/>
      <point x="218" y="768"/>
      <point x="245" y="900"/>
      <point x="289" y="900" type="curve" smooth="yes"/>
      <point x="333" y="900"/>
      <point x="354" y="785"/>
      <point x="354" y="566" type="curve"/>
      <point x="382" y="919" type="line"/>
      <point x="343" y="919" type="line"/>
      <point x="333" y="1020"/>
      <point x="303" y="1080"/>
      <point x="233" y="1080" type="curve" smooth="yes"/>
      <point x="123" y="1080"/>
      <point x="56" y="889"/>
      <point x="56" y="520" type="curve" smooth="yes"/>
      <point x="56" y="165"/>
      <point x="123" y="-20"/>
    </contour>
  </outline>
</glyph>
<glyph name="h" format="2">
  <advance width="600"/>
  <unicode hex="0068"/>
  <anchor x="300" y="0" name="bottom"/>
  <anchor x="300" y="784" name="center"/>
  <anchor x="186" y="1500" name="top"/>
  <outline>
    <contour>
      <point x="363" y="0" type="line"/>
      <point x="517" y="0" type="line"/>
      <point x="517" y="831" type="line" smooth="yes"/>
      <point x="517" y="1002"/>
      <point x="477" y="1080"/>
      <point x="389" y="1080" type="curve" smooth="yes"/>
      <point x="321" y="1080"/>
      <point x="277" y="1029"/>
      <point x="250" y="918" type="curve"/>
      <point x="193" y="918" type="line"/>
      <point x="237" y="616" type="line"/>
      <point x="237" y="812"/>
      <point x="263" y="910"/>
      <point x="315" y="910" type="curve" smooth="yes"/>
      <point x="349" y="910"/>
      <point x="363" y="882"/>
      <point x="363" y="811" type="curve" smooth="yes"/>
    </contour>
    <contour>
      <point x="83" y="0" type="line"/>
      <point x="237" y="0" type="line"/>
      <point x="237" y="1500" type="line"/>
      <point x="83" y="1500" type="line"/>
    </contour>
  </outline>
</glyph>
<glyph name="i" format="2">
  <advance width="600"/>
  <unicode hex="0069"/>
  <anchor x="332" y="0" name="bottom"/>
  <anchor x="323" y="1480" name="top"/>
  <outline>
    <contour>
      <point x="257" y="0" type="line"/>
      <point x="411" y="0" type="line"/>
      <point x="411" y="1000" type="line"/>
      <point x="257" y="1000" type="line"/>
    </contour>
    <contour>
      <point x="83" y="0" type="line"/>
      <point x="266" y="0" type="line"/>
      <point x="266" y="160" type="line"/>
      <point x="83" y="160" type="line"/>
    </contour>
    <contour>
      <point x="402" y="0" type="line"/>
      <point x="545" y="0" type="line"/>
      <point x="545" y="160" type="line"/>
      <point x="402" y="160" type="line"/>
    </contour>
    <contour>
      <point x="110" y="900" type="line"/>
      <point x="411" y="900" type="line"/>
      <point x="411" y="1060" type="line"/>
      <point x="110" y="1060" type="line"/>
    </contour>
    <contour>
      <point x="314" y="1257" type="curve" smooth="yes"/>
      <point x="387" y="1257"/>
      <point x="445" y="1316"/>
      <point x="445" y="1389" type="curve" smooth="yes"/>
      <point x="445" y="1461"/>
      <point x="387" y="1520"/>
      <point x="314" y="1520" type="curve" smooth="yes"/>
      <point x="241" y="1520"/>
      <point x="183" y="1461"/>
      <point x="183" y="1389" type="curve" smooth="yes"/>
      <point x="183" y="1316"/>
      <point x="241" y="1257"/>
    </contour>
  </outline>
</glyph>
<glyph name="j" format="2">
  <advance width="600"/>
  <unicode hex="006A"/>
  <anchor x="287" y="-480" name="bottom"/>
  <anchor x="363" y="1480" name="top"/>
  <outline>
    <contour>
      <point x="98" y="-480" type="line"/>
      <point x="159" y="-471" type="line" smooth="yes"/>
      <point x="381" y="-438"/>
      <point x="482" y="-289"/>
      <point x="482" y="94" type="curve" smooth="yes"/>
      <point x="482" y="384" type="line"/>
      <point x="328" y="384" type="line"/>
      <point x="328" y="62" type="line" smooth="yes"/>
      <point x="328" y="-163"/>
      <point x="283" y="-265"/>
      <point x="165" y="-293" type="curve" smooth="yes"/>
      <point x="93" y="-310" type="line"/>
    </contour>
    <contour>
      <point x="328" y="350" type="line"/>
      <point x="482" y="350" type="line"/>
      <point x="482" y="1060" type="line"/>
      <point x="328" y="1060" type="line"/>
    </contour>
    <contour>
      <point x="125" y="900" type="line"/>
      <point x="331" y="900" type="line"/>
      <point x="330" y="1060" type="line"/>
      <point x="125" y="1060" type="line"/>
    </contour>
    <contour>
      <point x="384" y="1257" type="curve" smooth="yes"/>
      <point x="457" y="1257"/>
      <point x="515" y="1316"/>
      <point x="515" y="1389" type="curve" smooth="yes"/>
      <point x="515" y="1461"/>
      <point x="457" y="1520"/>
      <point x="384" y="1520" type="curve" smooth="yes"/>
      <point x="311" y="1520"/>
      <point x="253" y="1461"/>
      <point x="253" y="1389" type="curve" smooth="yes"/>
      <point x="253" y="1316"/>
      <point x="311" y="1257"/>
    </contour>
  </outline>
</glyph>
<glyph name="k" format="2">
  <advance width="600"/>
  <unicode hex="006B"/>
  <anchor x="310" y="0" name="bottom"/>
  <anchor x="159" y="1500" name="top"/>
  <outline>
    <contour>
      <point x="187" y="402" type="line"/>
      <point x="241" y="402" type="line" smooth="yes"/>
      <point x="415" y="402"/>
      <point x="521" y="614"/>
      <point x="550" y="1060" type="curve"/>
      <point x="396" y="1060" type="line"/>
      <point x="379" y="696"/>
      <point x="336" y="572"/>
      <point x="241" y="572" type="curve" smooth="yes"/>
      <point x="187" y="572" type="line"/>
    </contour>
    <contour>
      <point x="83" y="0" type="line"/>
      <point x="237" y="0" type="line"/>
      <point x="237" y="1500" type="line"/>
      <point x="83" y="1500" type="line"/>
    </contour>
    <contour>
      <point x="429" y="0" type="line"/>
      <point x="583" y="0" type="line"/>
      <point x="441" y="598" type="line"/>
      <point x="312" y="516" type="line"/>
    </contour>
  </outline>
</glyph>
<glyph name="l" format="2">
  <advance width="600"/>
  <unicode hex="006C"/>
  <anchor x="338" y="0" name="bottom"/>
  <anchor x="262" y="784" name="center"/>
  <anchor x="260" y="1500" name="top"/>
  <anchor x="476" y="1500" name="topright"/>
  <outline>
    <contour>
      <point x="383" y="-20" type="curve" smooth="yes"/>
      <point x="440" y="-20"/>
      <point x="487" y="-14"/>
      <point x="541" y="2" type="curve"/>
      <point x="523" y="168" type="line"/>
      <point x="485" y="155"/>
      <point x="458" y="150"/>
      <point x="433" y="150" type="curve" smooth="yes"/>
      <point x="367" y="150"/>
      <point x="337" y="203"/>
      <point x="337" y="319" type="curve" smooth="yes"/>
      <point x="337" y="1500" type="line"/>
      <point x="183" y="1500" type="line"/>
      <point x="183" y="309" type="line" smooth="yes"/>
      <point x="183" y="83"/>
      <point x="246" y="-20"/>
    </contour>
    <contour>
      <point x="45" y="1340" type="line"/>
      <point x="191" y="1340" type="line"/>
      <point x="191" y="1500" type="line"/>
      <point x="45" y="1500" type="line"/>
    </contour>
  </outline>
</glyph>
<glyph name="m" format="2">
  <advance width="600"/>
  <unicode hex="006D"/>
  <anchor x="300" y="0" name="bottom"/>
  <anchor x="300" y="1060" name="top"/>
  <outline>
    <contour>
      <point x="404" y="0" type="line"/>
      <point x="548" y="0" type="line"/>
      <point x="548" y="891" type="line" smooth="yes"/>
      <point x="548" y="1015"/>
      <point x="517" y="1080"/>
      <point x="457" y="1080" type="curve" smooth="yes"/>
      <point x="400" y="1080"/>
      <point x="368" y="1035"/>
      <point x="363" y="948" type="curve"/>
      <point x="325" y="948" type="line"/>
      <point x="354" y="837" type="line"/>
      <point x="354" y="894"/>
      <point x="362" y="920"/>
      <point x="382" y="920" type="curve" smooth="yes"/>
      <point x="397" y="920"/>
      <point x="404" y="905"/>
      <point x="404" y="871" type="curve" smooth="yes"/>
    </contour>
    <contour>
      <point x="52" y="0" type="line"/>
      <point x="196" y="0" type="line"/>
      <point x="196" y="856" type="line"/>
      <point x="182" y="1060" type="line"/>
      <point x="52" y="1060" type="line"/>
    </contour>
    <contour>
      <point x="246" y="0" type="line"/>
      <point x="354" y="0" type="line"/>
      <point x="354" y="852" type="line"/>
      <point x="354" y="870" type="line" smooth="yes"/>
      <point x="354" y="1008"/>
      <point x="328" y="1080"/>
      <point x="277" y="1080" type="curve" smooth="yes"/>
      <point x="232" y="1080"/>
      <point x="206" y="1035"/>
      <point x="201" y="948" type="curve"/>
      <point x="177" y="948" type="line"/>
      <point x="196" y="837" type="line"/>
      <point x="196" y="894"/>
      <point x="204" y="920"/>
      <point x="223" y="920" type="curve" smooth="yes"/>
      <point x="239" y="920"/>
      <point x="246" y="904"/>
      <point x="246" y="870" type="curve" smooth="yes"/>
    </contour>
  </outline>
</glyph>
<glyph name="n" format="2">
  <advance width="600"/>
  <unicode hex="006E"/>
  <anchor x="300" y="0" name="bottom"/>
  <anchor x="296" y="1060" name="top"/>
  <outline>
    <contour>
      <point x="363" y="0" type="line"/>
      <point x="517" y="0" type="line"/>
      <point x="517" y="831" type="line" smooth="yes"/>
      <point x="517" y="1002"/>
      <point x="477" y="1080"/>
      <point x="389" y="1080" type="curve" smooth="yes"/>
      <point x="320" y="1080"/>
      <point x="275" y="1026"/>
      <point x="247" y="908" type="curve"/>
      <point x="193" y="908" type="line"/>
      <point x="237" y="616" type="line"/>
      <point x="237" y="812"/>
      <point x="263" y="910"/>
      <point x="315" y="910" type="curve" smooth="yes"/>
      <point x="349" y="910"/>
      <point x="363" y="882"/>
      <point x="363" y="811" type="curve" smooth="yes"/>
    </contour>
    <contour>
      <point x="83" y="0" type="line"/>
      <point x="237" y="0" type="line"/>
      <point x="237" y="856" type="line"/>
      <point x="220" y="1060" type="line"/>
      <point x="83" y="1060" type="line"/>
    </contour>
  </outline>
</glyph>
<glyph name="o" format="2">
  <advance width="600"/>
  <unicode hex="006F"/>
  <anchor x="300" y="0" name="bottom"/>
  <anchor x="300" y="530" name="center"/>
  <anchor x="300" y="10" name="ogonek"/>
  <anchor x="300" y="1060" name="top"/>
  <anchor x="487" y="1060" name="topright"/>
  <outline>
    <contour>
      <point x="300" y="-20" type="curve" smooth="yes"/>
      <point x="471" y="-20"/>
      <point x="530" y="121"/>
      <point x="530" y="530" type="curve" smooth="yes"/>
      <point x="530" y="939"/>
      <point x="471" y="1080"/>
      <point x="300" y="1080" type="curve" smooth="yes"/>
      <point x="129" y="1080"/>
      <point x="70" y="939"/>
      <point x="70" y="530" type="curve" smooth="yes"/>
      <point x="70" y="121"/>
      <point x="129" y="-20"/>
    </contour>
    <contour>
      <point x="300" y="150" type="curve" smooth="yes"/>
      <point x="249" y="150"/>
      <point x="232" y="248"/>
      <point x="232" y="530" type="curve" smooth="yes"/>
      <point x="232" y="812"/>
      <point x="249" y="910"/>
      <point x="300" y="910" type="curve" smooth="yes"/>
      <point x="351" y="910"/>
      <point x="368" y="812"/>
      <point x="368" y="530" type="curve" smooth="yes"/>
      <point x="368" y="248"/>
      <point x="351" y="150"/>
    </contour>
  </outline>
</glyph>
<glyph name="p" format="2">
  <advance width="600"/>
  <unicode hex="0070"/>
  <anchor x="322" y="-460" name="bottom"/>
  <anchor x="322" y="1060" name="top"/>
  <outline>
    <contour>
      <point x="358" y="-20" type="curve" smooth="yes"/>
      <point x="468" y="-20"/>
      <point x="535" y="165"/>
      <point x="535" y="520" type="curve" smooth="yes"/>
      <point x="535" y="889"/>
      <point x="468" y="1080"/>
      <point x="358" y="1080" type="curve" smooth="yes"/>
      <point x="291" y="1080"/>
      <point x="263" y="1020"/>
      <point x="253" y="919" type="curve"/>
      <point x="209" y="919" type="line"/>
      <point x="237" y="566" type="line"/>
      <point x="237" y="785"/>
      <point x="258" y="900"/>
      <point x="302" y="900" type="curve" smooth="yes"/>
      <point x="346" y="900"/>
      <point x="373" y="768"/>
      <point x="373" y="520" type="curve" smooth="yes"/>
      <point x="373" y="279"/>
      <point x="349" y="150"/>
      <point x="302" y="150" type="curve" smooth="yes"/>
      <point x="248" y="150"/>
      <point x="237" y="263"/>
      <point x="237" y="484" type="curve"/>
      <point x="205" y="131" type="line"/>
      <point x="251" y="131" type="line"/>
      <point x="259" y="36"/>
      <point x="300" y="-20"/>
    </contour>
    <contour>
      <point x="83" y="-460" type="line"/>
      <point x="237" y="-460" type="line"/>
      <point x="237" y="836" type="line"/>
      <point x="228" y="1060" type="line"/>
      <point x="83" y="1060" type="line"/>
    </contour>
  </outline>
</glyph>
<glyph name="q" format="2">
  <advance width="600"/>
  <unicode hex="0071"/>
  <anchor x="279" y="-460" name="bottom"/>
  <anchor x="279" y="1060" name="top"/>
  <outline>
    <contour>
      <point x="242" y="-20" type="curve" smooth="yes"/>
      <point x="300" y="-20"/>
      <point x="341" y="36"/>
      <point x="349" y="131" type="curve"/>
      <point x="395" y="131" type="line"/>
      <point x="363" y="484" type="line"/>
      <point x="363" y="263"/>
      <point x="352" y="150"/>
      <point x="298" y="150" type="curve" smooth="yes"/>
      <point x="251" y="150"/>
      <point x="227" y="279"/>
      <point x="227" y="520" type="curve" smooth="yes"/>
      <point x="227" y="768"/>
      <point x="254" y="900"/>
      <point x="298" y="900" type="curve" smooth="yes"/>
      <point x="342" y="900"/>
      <point x="363" y="785"/>
      <point x="363" y="566" type="curve"/>
      <point x="391" y="919" type="line"/>
      <point x="347" y="919" type="line"/>
      <point x="337" y="1020"/>
      <point x="309" y="1080"/>
      <point x="242" y="1080" type="curve" smooth="yes"/>
      <point x="132" y="1080"/>
      <point x="65" y="889"/>
      <point x="65" y="520" type="curve" smooth="yes"/>
      <point x="65" y="165"/>
      <point x="132" y="-20"/>
    </contour>
    <contour>
      <point x="363" y="-460" type="line"/>
      <point x="517" y="-460" type="line"/>
      <point x="517" y="1060" type="line"/>
      <point x="372" y="1060" type="line"/>
      <point x="363" y="836" type="line"/>
    </contour>
  </outline>
</glyph>
<glyph name="r" format="2">
  <advance width="600"/>
  <unicode hex="0072"/>
  <anchor x="210" y="0" name="bottom"/>
  <anchor x="300" y="1060" name="top"/>
  <outline>
    <contour>
      <point x="288" y="456" type="line"/>
      <point x="288" y="780"/>
      <point x="313" y="910"/>
      <point x="376" y="910" type="curve" smooth="yes"/>
      <point x="415" y="910"/>
      <point x="430" y="856"/>
      <point x="430" y="722" type="curve"/>
      <point x="584" y="722" type="line"/>
      <point x="584" y="978"/>
      <point x="542" y="1080"/>
      <point x="437" y="1080" type="curve" smooth="yes"/>
      <point x="358" y="1080"/>
      <point x="317" y="1024"/>
      <point x="291" y="884" type="curve"/>
      <point x="241" y="884" type="line"/>
    </contour>
    <contour>
      <point x="12" y="0" type="line"/>
      <point x="410" y="0" type="line"/>
      <point x="410" y="160" type="line"/>
      <point x="12" y="160" type="line"/>
    </contour>
    <contour>
      <point x="134" y="0" type="line"/>
      <point x="288" y="0" type="line"/>
      <point x="288" y="756" type="line"/>
      <point x="264" y="1060" type="line"/>
      <point x="134" y="1060" type="line"/>
    </contour>
    <contour>
      <point x="33" y="900" type="line"/>
      <point x="272" y="900" type="line"/>
      <point x="259" y="1060" type="line"/>
      <point x="33" y="1060" type="line"/>
    </contour>
  </outline>
</glyph>
<glyph name="s" format="2">
  <advance width="600"/>
  <unicode hex="0073"/>
  <anchor x="296" y="0" name="bottom"/>
  <anchor x="313" y="1060" name="top"/>
  <outline>
    <contour>
      <point x="266" y="-20" type="curve" smooth="yes"/>
      <point x="422" y="-20"/>
      <point x="504" y="64"/>
      <point x="504" y="225" type="curve" smooth="yes"/>
      <point x="504" y="296"/>
      <point x="470" y="396"/>
      <point x="412" y="492" type="curve" smooth="yes"/>
      <point x="321" y="642" type="line" smooth="yes"/>
      <point x="285" y="701"/>
      <point x="263" y="759"/>
      <point x="263" y="797" type="curve" smooth="yes"/>
      <point x="263" y="876"/>
      <point x="287" y="910"/>
      <point x="344" y="910" type="curve" smooth="yes"/>
      <point x="380" y="910"/>
      <point x="419" y="905"/>
      <point x="474" y="891" type="curve"/>
      <point x="491" y="1060" type="line"/>
      <point x="449" y="1073"/>
      <point x="403" y="1080"/>
      <point x="357" y="1080" type="curve" smooth="yes"/>
      <point x="191" y="1080"/>
      <point x="104" y="992"/>
      <point x="104" y="822" type="curve" smooth="yes"/>
      <point x="104" y="752"/>
      <point x="130" y="667"/>
      <point x="175" y="593" type="curve" smooth="yes"/>
      <point x="281" y="411" type="line" smooth="yes"/>
      <point x="321" y="342"/>
      <point x="344" y="281"/>
      <point x="344" y="245" type="curve" smooth="yes"/>
      <point x="344" y="179"/>
      <point x="323" y="150"/>
      <point x="276" y="150" type="curve" smooth="yes"/>
      <point x="232" y="150"/>
      <point x="185" y="161"/>
      <point x="115" y="188" type="curve"/>
      <point x="97" y="15" type="line"/>
      <point x="138" y="-8"/>
      <point x="196" y="-20"/>
    </contour>
  </outline>
</glyph>
<glyph name="t" format="2">
  <advance width="600"/>
  <unicode hex="0074"/>
  <anchor x="332" y="0" name="bottom"/>
  <anchor x="222" y="570" name="center"/>
  <anchor x="418" y="1180" name="top"/>
  <anchor x="535" y="1060" name="topright"/>
  <outline>
    <contour>
      <point x="415" y="-20" type="curve" smooth="yes"/>
      <point x="460" y="-20"/>
      <point x="499" y="-13"/>
      <point x="545" y="4" type="curve"/>
      <point x="531" y="170" type="line"/>
      <point x="484" y="158"/>
      <point x="451" y="150"/>
      <point x="425" y="150" type="curve" smooth="yes"/>
      <point x="344" y="150"/>
      <point x="314" y="198"/>
      <point x="314" y="309" type="curve" smooth="yes"/>
      <point x="314" y="580" type="line"/>
      <point x="160" y="580" type="line"/>
      <point x="160" y="299" type="line" smooth="yes"/>
      <point x="160" y="76"/>
      <point x="233" y="-20"/>
    </contour>
    <contour>
      <point x="160" y="500" type="line"/>
      <point x="314" y="500" type="line"/>
      <point x="314" y="1380" type="line"/>
      <point x="160" y="1380" type="line"/>
    </contour>
    <contour>
      <point x="25" y="900" type="line"/>
      <point x="525" y="900" type="line"/>
      <point x="525" y="1060" type="line"/>
      <point x="25" y="1060" type="line"/>
    </contour>
  </outline>
</glyph>
<glyph name="u" format="2">
  <advance width="600"/>
  <unicode hex="0075"/>
  <anchor x="280" y="0" name="bottom"/>
  <anchor x="531" y="10" name="ogonek"/>
  <anchor x="290" y="1060" name="top"/>
  <anchor x="550" y="1060" name="topright"/>
  <outline>
    <contour>
      <point x="208" y="-20" type="curve" smooth="yes"/>
      <point x="267" y="-20"/>
      <point x="305" y="34"/>
      <point x="324" y="133" type="curve"/>
      <point x="364" y="133" type="line"/>
      <point x="338" y="399" type="line"/>
      <point x="338" y="209"/>
      <point x="316" y="150"/>
      <point x="273" y="150" type="curve" smooth="yes"/>
      <point x="238" y="150"/>
      <point x="216" y="177"/>
      <point x="216" y="249" type="curve" smooth="yes"/>
      <point x="216" y="1060" type="line"/>
      <point x="62" y="1060" type="line"/>
      <point x="62" y="269" type="line" smooth="yes"/>
      <point x="62" y="71"/>
      <point x="108" y="-20"/>
    </contour>
    <contour>
      <point x="340" y="-10" type="line"/>
      <point x="584" y="0" type="line"/>
      <point x="584" y="140" type="line"/>
      <point x="492" y="162" type="line"/>
      <point x="492" y="349" type="line"/>
      <point x="338" y="349" type="line"/>
      <point x="337" y="204" type="line"/>
    </contour>
    <contour>
      <point x="338" y="209" type="line"/>
      <point x="492" y="259" type="line"/>
      <point x="492" y="1060" type="line"/>
      <point x="338" y="1060" type="line"/>
    </contour>
  </outline>
</glyph>
<glyph name="v" format="2">
  <advance width="600"/>
  <unicode hex="0076"/>
  <anchor x="300" y="0" name="bottom"/>
  <anchor x="303" y="1060" name="top"/>
  <outline>
    <contour>
      <point x="191" y="0" type="line"/>
      <point x="409" y="0" type="line"/>
      <point x="560" y="1060" type="line"/>
      <point x="405" y="1060" type="line"/>
      <point x="305" y="160" type="line"/>
      <point x="294" y="160" type="line"/>
      <point x="195" y="1060" type="line"/>
      <point x="40" y="1060" type="line"/>
    </contour>
  </outline>
</glyph>
<glyph name="w" format="2">
  <advance width="600"/>
  <unicode hex="0077"/>
  <anchor x="295" y="0" name="bottom"/>
  <anchor x="295" y="1060" name="top"/>
  <outline>
    <contour>
      <point x="357" y="0" type="line"/>
      <point x="551" y="0" type="line"/>
      <point x="590" y="1060" type="line"/>
      <point x="445" y="1060" type="line"/>
      <point x="426" y="160" type="line"/>
      <point x="416" y="160" type="line"/>
      <point x="348" y="1060" type="line"/>
      <point x="241" y="1060" type="line"/>
      <point x="289" y="850" type="line"/>
      <point x="298" y="850" type="line"/>
    </contour>
    <contour>
      <point x="33" y="0" type="line"/>
      <point x="232" y="0" type="line"/>
      <point x="292" y="850" type="line"/>
      <point x="299" y="850" type="line"/>
      <point x="348" y="1060" type="line"/>
      <point x="241" y="1060" type="line"/>
      <point x="174" y="160" type="line"/>
      <point x="164" y="160" type="line"/>
      <point x="160" y="1060" type="line"/>
      <point x="10" y="1060" type="line"/>
    </contour>
  </outline>
</glyph>
<glyph name="x" format="2">
  <advance width="600"/>
  <unicode hex="0078"/>
  <anchor x="300" y="0" name="bottom"/>
  <anchor x="300" y="1060" name="top"/>
  <outline>
    <contour>
      <point x="36" y="0" type="line"/>
      <point x="205" y="0" type="line"/>
      <point x="323" y="396" type="line"/>
      <point x="346" y="473" type="line"/>
      <point x="564" y="1060" type="line"/>
      <point x="395" y="1060" type="line"/>
      <point x="271" y="658" type="line"/>
      <point x="243" y="569" type="line"/>
    </contour>
    <contour>
      <point x="395" y="0" type="line"/>
      <point x="564" y="0" type="line"/>
      <point x="356" y="569" type="line"/>
      <point x="329" y="656" type="line"/>
      <point x="205" y="1060" type="line"/>
      <point x="36" y="1060" type="line"/>
      <point x="246" y="473" type="line"/>
      <point x="269" y="401" type="line"/>
    </contour>
  </outline>
</glyph>
<glyph name="y" format="2">
  <advance width="600"/>
  <unicode hex="0079"/>
  <anchor x="479" y="0" name="bottom"/>
  <anchor x="308" y="1060" name="top"/>
  <outline>
    <contour>
      <point x="12" y="-480" type="line"/>
      <point x="99" y="-461" type="line" smooth="yes"/>
      <point x="282" y="-421"/>
      <point x="383" y="-290"/>
      <point x="440" y="94" type="curve" smooth="yes"/>
      <point x="578" y="1060" type="line"/>
      <point x="409" y="1060" type="line"/>
      <point x="296" y="144" type="line" smooth="yes"/>
      <point x="258" y="-151"/>
      <point x="206" y="-260"/>
      <point x="86" y="-290" type="curve" smooth="yes"/>
      <point x="6" y="-310" type="line"/>
    </contour>
    <contour>
      <point x="169" y="0" type="line"/>
      <point x="331" y="0" type="line"/>
      <point x="330" y="160" type="line"/>
      <point x="283" y="160" type="line"/>
      <point x="171" y="1060" type="line"/>
      <point x="2" y="1060" type="line"/>
    </contour>
  </outline>
</glyph>
<glyph name="z" format="2">
  <advance width="600"/>
  <unicode hex="007A"/>
  <anchor x="300" y="0" name="bottom"/>
  <anchor x="300" y="530" name="center"/>
  <anchor x="300" y="1060" name="top"/>
  <outline>
    <contour>
      <point x="227" y="56" type="line"/>
      <point x="487" y="900" type="line"/>
      <point x="373" y="1000" type="line"/>
      <point x="104" y="160" type="line"/>
    </contour>
    <contour>
      <point x="104" y="0" type="line"/>
      <point x="496" y="0" type="line"/>
      <point x="496" y="160" type="line"/>
      <point x="104" y="160" type="line"/>
    </contour>
    <contour>
      <point x="104" y="900" type="line"/>
      <point x="487" y="900" type="line"/>
      <point x="487" y="1060" type="line"/>
      <point x="104" y="1060" type="line"/>
    </contour>
  </outline>
</glyph>
<glyph name="braceleft" format="2">
  <advance width="600"/>
  <unicode hex="007B"/>
  <outline>
    <contour>
      <point x="425" y="-214" type="curve" smooth="yes"/>
      <point x="469" y="-214"/>
      <point x="495" y="-206"/>
      <point x="520" y="-195" type="curve"/>
      <point x="507" y="-33" type="line"/>
      <point x="484" y="-40"/>
      <point x="461" y="-44"/>
      <point x="443" y="-44" type="curve" smooth="yes"/>
      <point x="396" y="-44"/>
      <point x="367" y="-1"/>
      <point x="381" y="75" type="curve" smooth="yes"/>
      <point x="405" y="211"/>
      <point x="457" y="338"/>
      <point x="457" y="488" type="curve" smooth="yes"/>
      <point x="457" y="618"/>
      <point x="366" y="699"/>
      <point x="219" y="702" type="curve"/>
      <point x="219" y="710" type="line"/>
      <point x="366" y="713"/>
      <point x="457" y="796"/>
      <point x="457" y="942" type="curve" smooth="yes"/>
      <point x="457" y="1090"/>
      <point x="408" y="1223"/>
      <point x="381" y="1365" type="curve" smooth="yes"/>
      <point x="369" y="1424"/>
      <point x="396" y="1456"/>
      <point x="443" y="1456" type="curve" smooth="yes"/>
      <point x="461" y="1456"/>
      <point x="483" y="1451"/>
      <point x="506" y="1444" type="curve"/>
      <point x="520" y="1606" type="line"/>
      <point x="495" y="1618"/>
      <point x="469" y="1626"/>
      <point x="425" y="1626" type="curve" smooth="yes"/>
      <point x="285" y="1626"/>
      <point x="191" y="1533"/>
      <point x="221" y="1365" type="curve" smooth="yes"/>
      <point x="246" y="1227"/>
      <point x="293" y="1093"/>
      <point x="293" y="938" type="curve" smooth="yes"/>
      <point x="293" y="845"/>
      <point x="229" y="792"/>
      <point x="120" y="792" type="curve"/>
      <point x="120" y="620" type="line"/>
      <point x="232" y="620"/>
      <point x="293" y="591"/>
      <point x="293" y="492" type="curve" smooth="yes"/>
      <point x="293" y="347"/>
      <point x="244" y="212"/>
      <point x="221" y="75" type="curve" smooth="yes"/>
      <point x="189" y="-109"/>
      <point x="285" y="-214"/>
    </contour>
  </outline>
</glyph>
<glyph name="bar" format="2">
  <advance width="600"/>
  <unicode hex="007C"/>
  <outline>
    <contour>
      <point x="221" y="-310" type="line"/>
      <point x="379" y="-310" type="line"/>
      <point x="379" y="1730" type="line"/>
      <point x="221" y="1730" type="line"/>
    </contour>
  </outline>
</glyph>
<glyph name="braceright" format="2">
  <advance width="600"/>
  <unicode hex="007D"/>
  <outline>
    <contour>
      <point x="175" y="-214" type="curve" smooth="yes"/>
      <point x="315" y="-214"/>
      <point x="411" y="-109"/>
      <point x="379" y="75" type="curve" smooth="yes"/>
      <point x="356" y="212"/>
      <point x="307" y="347"/>
      <point x="307" y="492" type="curve" smooth="yes"/>
      <point x="307" y="591"/>
      <point x="368" y="620"/>
      <point x="480" y="620" type="curve"/>
      <point x="480" y="792" type="line"/>
      <point x="371" y="792"/>
      <point x="307" y="845"/>
      <point x="307" y="938" type="curve" smooth="yes"/>
      <point x="307" y="1093"/>
      <point x="354" y="1227"/>
      <point x="379" y="1365" type="curve" smooth="yes"/>
      <point x="409" y="1533"/>
      <point x="315" y="1626"/>
      <point x="175" y="1626" type="curve" smooth="yes"/>
      <point x="131" y="1626"/>
      <point x="105" y="1618"/>
      <point x="80" y="1606" type="curve"/>
      <point x="94" y="1444" type="line"/>
      <point x="117" y="1451"/>
      <point x="139" y="1456"/>
      <point x="157" y="1456" type="curve" smooth="yes"/>
      <point x="204" y="1456"/>
      <point x="231" y="1424"/>
      <point x="219" y="1365" type="curve" smooth="yes"/>
      <point x="192" y="1223"/>
      <point x="143" y="1090"/>
      <point x="143" y="942" type="curve" smooth="yes"/>
      <point x="143" y="796"/>
      <point x="234" y="713"/>
      <point x="381" y="710" type="curve"/>
      <point x="381" y="702" type="line"/>
      <point x="234" y="699"/>
      <point x="143" y="618"/>
      <point x="143" y="488" type="curve" smooth="yes"/>
      <point x="143" y="338"/>
      <point x="195" y="211"/>
      <point x="219" y="75" type="curve" smooth="yes"/>
      <point x="233" y="-1"/>
      <point x="204" y="-44"/>
      <point x="157" y="-44" type="curve" smooth="yes"/>
      <point x="139" y="-44"/>
      <point x="116" y="-40"/>
      <point x="93" y="-33" type="curve"/>
      <point x="80" y="-195" type="line"/>
      <point x="105" y="-206"/>
      <point x="131" y="-214"/>
    </contour>
  </outline>
</glyph>
<glyph name="asciitilde" format="2">
  <advance width="600"/>
  <unicode hex="007E"/>
  <outline>
    <contour>
      <point x="40" y="486" type="line"/>
      <point x="179" y="486" type="line"/>
      <point x="179" y="576" type="line" smooth="yes"/>
      <point x="179" y="694"/>
      <point x="187" y="735"/>
      <point x="211" y="735" type="curve" smooth="yes"/>
      <point x="224" y="735"/>
      <point x="241" y="711"/>
      <point x="275" y="640" type="curve" smooth="yes"/>
      <point x="315" y="554"/>
      <point x="355" y="520"/>
      <point x="412" y="520" type="curve" smooth="yes"/>
      <point x="515" y="520"/>
      <point x="560" y="618"/>
      <point x="560" y="850" type="curve" smooth="yes"/>
      <point x="560" y="930" type="line"/>
      <point x="423" y="930" type="line"/>
      <point x="423" y="840" type="line" smooth="yes"/>
      <point x="423" y="732"/>
      <point x="414" y="681"/>
      <point x="388" y="681" type="curve" smooth="yes"/>
      <point x="363" y="681"/>
      <point x="347" y="722"/>
      <point x="322" y="777" type="curve" smooth="yes"/>
      <point x="281" y="866"/>
      <point x="245" y="896"/>
      <point x="192" y="896" type="curve" smooth="yes"/>
      <point x="86" y="896"/>
      <point x="40" y="797"/>
      <point x="40" y="566" type="curve" smooth="yes"/>
    </contour>
  </outline>
</glyph>
<glyph name="cent" format="2">
  <advance width="600"/>
  <unicode hex="00A2"/>
  <anchor x="323" y="0" name="bottom"/>
  <anchor x="323" y="1060" name="top"/>
  <outline>
    <contour>
      <point x="274" y="-334" type="line"/>
      <point x="412" y="-334" type="line"/>
      <point x="412" y="1394" type="line"/>
      <point x="274" y="1394" type="line"/>
    </contour>
    <component base="c"/>
  </outline>
</glyph>
<glyph name="sterling" format="2">
  <advance width="600"/>
  <unicode hex="00A3"/>
  <outline>
    <contour>
      <point x="54" y="0" type="line"/>
      <point x="223" y="0" type="line"/>
      <point x="201" y="160" type="line"/>
      <point x="270" y="322"/>
      <point x="304" y="465"/>
      <point x="304" y="627" type="curve" smooth="yes"/>
      <point x="304" y="1136" type="line" smooth="yes"/>
      <point x="304" y="1228"/>
      <point x="326" y="1270"/>
      <point x="375" y="1270" type="curve" smooth="yes"/>
      <point x="402" y="1270"/>
      <point x="426" y="1244"/>
      <point x="441" y="1199" type="curve"/>
      <point x="570" y="1266" type="line"/>
      <point x="539" y="1374"/>
      <point x="468" y="1440"/>
      <point x="368" y="1440" type="curve" smooth="yes"/>
      <point x="216" y="1440"/>
      <point x="146" y="1345"/>
      <point x="146" y="1137" type="curve" smooth="yes"/>
      <point x="146" y="627" type="line" smooth="yes"/>
      <point x="146" y="464"/>
      <point x="116" y="322"/>
      <point x="54" y="160" type="curve"/>
    </contour>
    <contour>
      <point x="95" y="0" type="line"/>
      <point x="561" y="0" type="line"/>
      <point x="561" y="160" type="line"/>
      <point x="95" y="160" type="line"/>
    </contour>
    <contour>
      <point x="54" y="581" type="line"/>
      <point x="450" y="581" type="line"/>
      <point x="450" y="719" type="line"/>
      <point x="54" y="719" type="line"/>
    </contour>
  </outline>
</glyph>
<glyph name="yen" format="2">
  <advance width="600"/>
  <unicode hex="00A5"/>
  <anchor x="300" y="0" name="bottom"/>
  <anchor x="300" y="1420" name="top"/>
  <anchor x="-25" y="1420" name="topleft"/>
  <outline>
    <contour>
      <point x="81" y="451" type="line"/>
      <point x="519" y="451" type="line"/>
      <point x="519" y="589" type="line"/>
      <point x="81" y="589" type="line"/>
    </contour>
    <contour>
      <point x="81" y="191" type="line"/>
      <point x="519" y="191" type="line"/>
      <point x="519" y="329" type="line"/>
      <point x="81" y="329" type="line"/>
    </contour>
    <component base="Y"/>
  </outline>
</glyph>
<glyph name="copyright" format="2">
  <advance width="600"/>
  <unicode hex="00A9"/>
  <outline>
    <contour>
      <point x="300" y="15" type="curve" smooth="yes"/>
      <point x="512" y="15"/>
      <point x="634" y="262"/>
      <point x="634" y="695" type="curve" smooth="yes"/>
      <point x="634" y="1147"/>
      <point x="512" y="1405"/>
      <point x="300" y="1405" type="curve" smooth="yes"/>
      <point x="88" y="1405"/>
      <point x="-34" y="1147"/>
      <point x="-34" y="695" type="curve" smooth="yes"/>
      <point x="-34" y="262"/>
      <point x="88" y="15"/>
    </contour>
    <contour>
      <point x="332" y="380" type="curve" smooth="yes"/>
      <point x="369" y="380"/>
      <point x="404" y="387"/>
      <point x="436" y="410" type="curve"/>
      <point x="423" y="566" type="line"/>
      <point x="398" y="550"/>
      <point x="372" y="540"/>
      <point x="345" y="540" type="curve" smooth="yes"/>
      <point x="301" y="540"/>
      <point x="278" y="605"/>
      <point x="278" y="722" type="curve" smooth="yes"/>
      <point x="278" y="823"/>
      <point x="298" y="880"/>
      <point x="334" y="880" type="curve" smooth="yes"/>
      <point x="352" y="880"/>
      <point x="369" y="851"/>
      <point x="377" y="807" type="curve"/>
      <point x="450" y="920" type="line"/>
      <point x="433" y="993"/>
      <point x="389" y="1040"/>
      <point x="327" y="1040" type="curve" smooth="yes"/>
      <point x="206" y="1040"/>
      <point x="137" y="919"/>
      <point x="137" y="712" type="curve" smooth="yes"/>
      <point x="137" y="498"/>
      <point x="208" y="380"/>
    </contour>
    <contour>
      <point x="300" y="169" type="curve" smooth="yes"/>
      <point x="177" y="169"/>
      <point x="106" y="361"/>
      <point x="106" y="695" type="curve" smooth="yes"/>
      <point x="106" y="1048"/>
      <point x="177" y="1251"/>
      <point x="300" y="1251" type="curve" smooth="yes"/>
      <point x="423" y="1251"/>
      <point x="494" y="1048"/>
      <point x="494" y="695" type="curve" smooth="yes"/>
      <point x="494" y="361"/>
      <point x="423" y="169"/>
    </contour>
  </outline>
</glyph>
<glyph name="registered" format="2">
  <advance width="600"/>
  <unicode hex="00AE"/>
  <outline>
    <contour>
      <point x="300" y="15" type="curve" smooth="yes"/>
      <point x="512" y="15"/>
      <point x="634" y="262"/>
      <point x="634" y="695" type="curve" smooth="yes"/>
      <point x="634" y="1147"/>
      <point x="512" y="1405"/>
      <point x="300" y="1405" type="curve" smooth="yes"/>
      <point x="88" y="1405"/>
      <point x="-34" y="1147"/>
      <point x="-34" y="695" type="curve" smooth="yes"/>
      <point x="-34" y="262"/>
      <point x="88" y="15"/>
    </contour>
    <contour>
      <point x="167" y="396" type="line"/>
      <point x="289" y="396" type="line"/>
      <point x="289" y="1030" type="line"/>
      <point x="167" y="1030" type="line"/>
    </contour>
    <contour>
      <point x="341" y="396" type="line"/>
      <point x="469" y="396" type="line"/>
      <point x="401" y="635" type="line"/>
      <point x="293" y="608" type="line"/>
    </contour>
    <contour>
      <point x="300" y="169" type="curve" smooth="yes"/>
      <point x="177" y="169"/>
      <point x="106" y="361"/>
      <point x="106" y="695" type="curve" smooth="yes"/>
      <point x="106" y="1048"/>
      <point x="177" y="1251"/>
      <point x="300" y="1251" type="curve" smooth="yes"/>
      <point x="423" y="1251"/>
      <point x="494" y="1048"/>
      <point x="494" y="695" type="curve" smooth="yes"/>
      <point x="494" y="361"/>
      <point x="423" y="169"/>
    </contour>
    <contour>
      <point x="265" y="600" type="line"/>
      <point x="316" y="600" type="line" smooth="yes"/>
      <point x="403" y="600"/>
      <point x="453" y="682"/>
      <point x="453" y="815" type="curve" smooth="yes"/>
      <point x="453" y="955"/>
      <point x="403" y="1030"/>
      <point x="316" y="1030" type="curve" smooth="yes"/>
      <point x="254" y="1030" type="line"/>
      <point x="254" y="900" type="line"/>
      <point x="306" y="900" type="line" smooth="yes"/>
      <point x="326" y="900"/>
      <point x="338" y="869"/>
      <point x="338" y="815" type="curve" smooth="yes"/>
      <point x="338" y="761"/>
      <point x="326" y="730"/>
      <point x="306" y="730" type="curve" smooth="yes"/>
      <point x="265" y="730" type="line"/>
    </contour>
  </outline>
</glyph>
<glyph name="degree" format="2">
  <advance width="600"/>
  <unicode hex="00B0"/>
  <outline>
    <contour>
      <point x="300" y="690" type="curve" smooth="yes"/>
      <point x="460" y="690"/>
      <point x="543" y="819"/>
      <point x="543" y="1065" type="curve" smooth="yes"/>
      <point x="543" y="1311"/>
      <point x="460" y="1440"/>
      <point x="300" y="1440" type="curve" smooth="yes"/>
      <point x="140" y="1440"/>
      <point x="57" y="1311"/>
      <point x="57" y="1065" type="curve" smooth="yes"/>
      <point x="57" y="819"/>
      <point x="140" y="690"/>
    </contour>
    <contour>
      <point x="300" y="860" type="curve" smooth="yes"/>
      <point x="242" y="860"/>
      <point x="211" y="930"/>
      <point x="211" y="1065" type="curve" smooth="yes"/>
      <point x="211" y="1200"/>
      <point x="242" y="1270"/>
      <point x="300" y="1270" type="curve" smooth="yes"/>
      <point x="358" y="1270"/>
      <point x="389" y="1200"/>
      <point x="389" y="1065" type="curve" smooth="yes"/>
      <point x="389" y="930"/>
      <point x="358" y="860"/>
    </contour>
  </outline>
</glyph>
<glyph name="multiply" format="2">
  <advance width="600"/>
  <unicode hex="00D7"/>
  <outline>
    <contour>
      <point x="168" y="243" type="line"/>
      <point x="45" y="304" type="line"/>
      <point x="260" y="766" type="line"/>
      <point x="432" y="1133" type="line"/>
      <point x="555" y="1070" type="line"/>
      <point x="341" y="613" type="line"/>
    </contour>
    <contour>
      <point x="432" y="243" type="line"/>
      <point x="255" y="621" type="line"/>
      <point x="45" y="1070" type="line"/>
      <point x="168" y="1133" type="line"/>
      <point x="335" y="774" type="line"/>
      <point x="555" y="304" type="line"/>
    </contour>
  </outline>
</glyph>
<glyph name="divide" format="2">
  <advance width="600"/>
  <unicode hex="00F7"/>
  <outline>
    <contour>
      <point x="40" y="629" type="line"/>
      <point x="560" y="629" type="line"/>
      <point x="560" y="789" type="line"/>
      <point x="40" y="789" type="line"/>
    </contour>
    <component base="period" yOffset="166"/>
    <component base="period" yOffset="1011"/>
  </outline>
</glyph>
<glyph name="endash" format="2">
  <advance width="600"/>
  <unicode hex="2013"/>
  <outline>
    <contour>
      <point x="90" y="629" type="line"/>
      <point x="510" y="629" type="line"/>
      <point x="510" y="789" type="line"/>
      <point x="90" y="789" type="line"/>
    </contour>
  </outline>
</glyph>
<glyph name="emdash" format="2">
  <advance width="600"/>
  <unicode hex="2014"/>
  <outline>
    <contour>
      <point x="40" y="629" type="line"/>
      <point x="560" y="629" type="line"/>
      <point x="560" y="789" type="line"/>
      <point x="40" y="789" type="line"/>
    </contour>
  </outline>
</glyph>
<glyph name="quoteleft" format="2">
  <advance width="600"/>
  <unicode hex="2018"/>
  <outline>
    <contour>
      <point x="409" y="690" type="curve" smooth="yes"/>
      <point x="484" y="690" type="line"/>
      <point x="484" y="860" type="line"/>
      <point x="439" y="860" type="line" smooth="yes"/>
      <point x="322" y="860"/>
      <point x="252" y="909"/>
      <point x="252" y="992" type="curve" smooth="yes"/>
      <point x="252" y="1084"/>
      <point x="297" y="1178"/>
      <point x="386" y="1273" type="curve" smooth="yes"/>
      <point x="446" y="1338" type="line"/>
      <point x="321" y="1440" type="line"/>
      <point x="265" y="1379" type="line" smooth="yes"/>
      <point x="146" y="1250"/>
      <point x="90" y="1114"/>
      <point x="90" y="992" type="curve" smooth="yes"/>
      <point x="90" y="802"/>
      <point x="208" y="690"/>
    </contour>
  </outline>
</glyph>
<glyph name="quoteright" format="2">
  <advance width="600"/>
  <unicode hex="2019"/>
  <outline>
    <contour>
      <point x="253" y="690" type="line"/>
      <point x="309" y="751" type="line" smooth="yes"/>
      <point x="428" y="880"/>
      <point x="484" y="1016"/>
      <point x="484" y="1138" type="curve" smooth="yes"/>
      <point x="484" y="1328"/>
      <point x="366" y="1440"/>
      <point x="165" y="1440" type="curve" smooth="yes"/>
      <point x="90" y="1440" type="line"/>
      <point x="90" y="1270" type="line"/>
      <point x="135" y="1270" type="line" smooth="yes"/>
      <point x="252" y="1270"/>
      <point x="322" y="1221"/>
      <point x="322" y="1138" type="curve" smooth="yes"/>
      <point x="322" y="1046"/>
      <point x="276" y="952"/>
      <point x="188" y="857" type="curve" smooth="yes"/>
      <point x="128" y="792" type="line"/>
    </contour>
  </outline>
</glyph>
<glyph name="quotedblleft" format="2">
  <advance width="600"/>
  <unicode hex="201C"/>
  <outline>
    <contour>
      <point x="509" y="882" type="curve" smooth="yes"/>
      <point x="590" y="882" type="line"/>
      <point x="590" y="1044" type="line"/>
      <point x="529" y="1044" type="line" smooth="yes"/>
      <point x="473" y="1044"/>
      <point x="439" y="1088"/>
      <point x="439" y="1164" type="curve" smooth="yes"/>
      <point x="438" y="1236"/>
      <point x="452" y="1306"/>
      <point x="475" y="1420" type="curve"/>
      <point x="313" y="1440" type="line"/>
      <point x="290" y="1326"/>
      <point x="275" y="1233"/>
      <point x="276" y="1144" type="curve" smooth="yes"/>
      <point x="276" y="979"/>
      <point x="363" y="882"/>
    </contour>
    <contour>
      <point x="309" y="440" type="curve" smooth="yes"/>
      <point x="404" y="440" type="line"/>
      <point x="404" y="602" type="line"/>
      <point x="329" y="602" type="line" smooth="yes"/>
      <point x="254" y="602"/>
      <point x="208" y="646"/>
      <point x="208" y="722" type="curve" smooth="yes"/>
      <point x="208" y="805"/>
      <point x="221" y="876"/>
      <point x="245" y="978" type="curve"/>
      <point x="83" y="998" type="line"/>
      <point x="58" y="877"/>
      <point x="45" y="796"/>
      <point x="45" y="702" type="curve" smooth="yes"/>
      <point x="45" y="537"/>
      <point x="144" y="440"/>
    </contour>
  </outline>
</glyph>
<glyph name="quotedblright" format="2">
  <advance width="600"/>
  <unicode hex="201D"/>
  <outline>
    <contour>
      <point x="531" y="882" type="line"/>
      <point x="556" y="1003"/>
      <point x="569" y="1084"/>
      <point x="569" y="1178" type="curve" smooth="yes"/>
      <point x="569" y="1343"/>
      <point x="470" y="1440"/>
      <point x="305" y="1440" type="curve" smooth="yes"/>
      <point x="210" y="1440" type="line"/>
      <point x="210" y="1278" type="line"/>
      <point x="285" y="1278" type="line" smooth="yes"/>
      <point x="360" y="1278"/>
      <point x="406" y="1234"/>
      <point x="406" y="1158" type="curve" smooth="yes"/>
      <point x="406" y="1075"/>
      <point x="393" y="1004"/>
      <point x="369" y="902" type="curve"/>
    </contour>
    <contour>
      <point x="301" y="440" type="line"/>
      <point x="324" y="554"/>
      <point x="339" y="647"/>
      <point x="339" y="736" type="curve" smooth="yes"/>
      <point x="339" y="901"/>
      <point x="251" y="998"/>
      <point x="105" y="998" type="curve" smooth="yes"/>
      <point x="10" y="998" type="line"/>
      <point x="10" y="836" type="line"/>
      <point x="85" y="836" type="line" smooth="yes"/>
      <point x="141" y="836"/>
      <point x="176" y="792"/>
      <point x="176" y="716" type="curve" smooth="yes"/>
      <point x="176" y="644"/>
      <point x="162" y="574"/>
      <point x="139" y="460" type="curve"/>
    </contour>
  </outline>
</glyph>
<glyph name="bullet" format="2">
  <advance width="600"/>
  <unicode hex="2022"/>
  <outline>
    <contour>
      <point x="300" y="463" type="curve" smooth="yes"/>
      <point x="437" y="463"/>
      <point x="547" y="573"/>
      <point x="547" y="710" type="curve" smooth="yes"/>
      <point x="547" y="847"/>
      <point x="437" y="957"/>
      <point x="300" y="957" type="curve" smooth="yes"/>
      <point x="163" y="957"/>
      <point x="53" y="847"/>
      <point x="53" y="710" type="curve" smooth="yes"/>
      <point x="53" y="573"/>
      <point x="163" y="463"/>
    </contour>
  </outline>
</glyph>
<glyph name="ellipsis" format="2">
  <advance width="600"/>
  <unicode hex="2026"/>
  <outline>
    <contour>
      <point x="150" y="-19" type="curve" smooth="yes"/>
      <point x="223" y="-19"/>
      <point x="281" y="40"/>
      <point x="281" y="112" type="curve" smooth="yes"/>
      <point x="281" y="184"/>
      <point x="223" y="244"/>
      <point x="150" y="244" type="curve" smooth="yes"/>
      <point x="78" y="244"/>
      <point x="20" y="184"/>
      <point x="20" y="112" type="curve" smooth="yes"/>
      <point x="20" y="40"/>
      <point x="78" y="-19"/>
    </contour>
    <contour>
      <point x="449" y="671" type="curve" smooth="yes"/>
      <point x="522" y="671"/>
      <point x="580" y="730"/>
      <point x="580" y="802" type="curve" smooth="yes"/>
      <point x="580" y="874"/>
      <point x="522" y="934"/>
      <point x="449" y="934" type="curve" smooth="yes"/>
      <point x="377" y="934"/>
      <point x="319" y="874"/>
      <point x="319" y="802" type="curve" smooth="yes"/>
      <point x="319" y="730"/>
      <point x="377" y="671"/>
    </contour>
    <contour>
      <point x="300" y="326" type="curve" smooth="yes"/>
      <point x="371" y="326"/>
      <point x="429" y="385"/>
      <point x="429" y="457" type="curve" smooth="yes"/>
      <point x="429" y="529"/>
      <point x="371" y="589"/>
      <point x="300" y="589" type="curve" smooth="yes"/>
      <point x="228" y="589"/>
      <point x="170" y="529"/>
      <point x="170" y="457" type="curve" smooth="yes"/>
      <point x="170" y="385"/>
      <point x="228" y="326"/>
    </contour>
  </outline>
</glyph>
<glyph name="euro" format="2">
  <advance width="600"/>
  <unicode hex="20AC"/>
  <outline>
    <contour>
      <point x="377" y="-20" type="curve" smooth="yes"/>
      <point x="446" y="-20"/>
      <point x="514" y="-5"/>
      <point x="580" y="27" type="curve"/>
      <point x="553" y="186" type="line"/>
      <point x="507" y="161"/>
      <point x="462" y="150"/>
      <point x="418" y="150" type="curve" smooth="yes"/>
      <point x="291" y="150"/>
      <point x="232" y="330"/>
      <point x="232" y="722" type="curve" smooth="yes"/>
      <point x="232" y="1098"/>
      <point x="276" y="1270"/>
      <point x="370" y="1270" type="curve" smooth="yes"/>
      <point x="404" y="1270"/>
      <point x="431" y="1248"/>
      <point x="456" y="1199" type="curve"/>
      <point x="600" y="1302" type="line"/>
      <point x="557" y="1397"/>
      <point x="493" y="1440"/>
      <point x="394" y="1440" type="curve" smooth="yes"/>
      <point x="171" y="1440"/>
      <point x="68" y="1211"/>
      <point x="68" y="712" type="curve" smooth="yes"/>
      <point x="68" y="210"/>
      <point x="165" y="-20"/>
    </contour>
    <contour>
      <point x="14" y="491" type="line"/>
      <point x="463" y="491" type="line"/>
      <point x="463" y="629" type="line"/>
      <point x="14" y="629" type="line"/>
    </contour>
    <contour>
      <point x="14" y="781" type="line"/>
      <point x="463" y="781" type="line"/>
      <point x="463" y="919" type="line"/>
      <point x="14" y="919" type="line"/>
    </contour>
  </outline>
</glyph>
<glyph name="trademark" format="2">
  <advance width="600"/>
  <unicode hex="2122"/>
  <outline>
    <contour>
      <point x="78" y="774" type="line"/>
      <point x="191" y="774" type="line"/>
      <point x="191" y="1420" type="line"/>
      <point x="78" y="1420" type="line"/>
    </contour>
    <contour>
      <point x="10" y="1288" type="line"/>
      <point x="248" y="1288" type="line"/>
      <point x="248" y="1420" type="line"/>
      <point x="10" y="1420" type="line"/>
    </contour>
    <contour>
      <point x="412" y="1022" type="line"/>
      <point x="441" y="1022" type="line"/>
      <point x="468" y="1248" type="line"/>
      <point x="483" y="1248" type="line"/>
      <point x="483" y="1420" type="line"/>
      <point x="451" y="1420" type="line"/>
      <point x="425" y="1153" type="line"/>
      <point x="421" y="1153" type="line"/>
    </contour>
    <contour>
      <point x="243" y="774" type="line"/>
      <point x="356" y="774" type="line"/>
      <point x="356" y="1420" type="line"/>
      <point x="243" y="1420" type="line"/>
    </contour>
    <contour>
      <point x="393" y="1022" type="line"/>
      <point x="428" y="1022" type="line"/>
      <point x="422" y="1153" type="line"/>
      <point x="420" y="1153" type="line"/>
      <point x="394" y="1420" type="line"/>
      <point x="355" y="1420" type="line"/>
      <point x="355" y="1248" type="line"/>
      <point x="371" y="1248" type="line"/>
    </contour>
    <contour>
      <point x="482" y="774" type="line"/>
      <point x="590" y="774" type="line"/>
      <point x="590" y="1420" type="line"/>
      <point x="482" y="1420" type="line"/>
    </contour>
  </outline>
</glyph>
<glyph name=".notdef" format="2">
  <advance width="600"/>
  <outline>
    <contour>
      <point x="372" y="0" type="line"/>
      <point x="530" y="0" type="line"/>
      <point x="530" y="1420" type="line"/>
      <point x="372" y="1420" type="line"/>
    </contour>
    <contour>
      <point x="70" y="0" type="line"/>
      <point x="530" y="0" type="line"/>
      <point x="530" y="160" type="line"/>
      <point x="70" y="160" type="line"/>
    </contour>
    <contour>
      <point x="70" y="0" type="line"/>
      <point x="228" y="0" type="line"/>
      <point x="228" y="1420" type="line"/>
      <point x="70" y="1420" type="line"/>
    </contour>
    <contour>
      <point x="70" y="1260" type="line"/>
      <point x="530" y="1260" type="line"/>
      <point x="530" y="1420" type="line"/>
      <point x="70" y="1420" type="line"/>
    </contour>
  </outline>
</glyph>
<glyph name="cent.BRACKET.varAlt01" format="2">
  <advance width="600"/>
  <outline>
    <contour>
      <point x="274" y="978" type="line"/>
      <point x="412" y="978" type="line"/>
      <point x="412" y="1394" type="line"/>
      <point x="274" y="1394" type="line"/>
    </contour>
    <contour>
      <point x="274" y="-334" type="line"/>
      <point x="412" y="-334" type="line"/>
      <point x="412" y="72" type="line"/>
      <point x="274" y="72" type="line"/>
    </contour>
    <component base="c"/>
  </outline>
</glyph>
<glyph name="dollar.BRACKET.varAlt01" format="2">
  <advance width="600"/>
  <outline>
    <contour>
      <point x="225" y="1340" type="line"/>
      <point x="363" y="1340" type="line"/>
      <point x="363" y="1740" type="line"/>
      <point x="225" y="1740" type="line"/>
    </contour>
    <contour>
      <point x="225" y="-320" type="line"/>
      <point x="363" y="-320" type="line"/>
      <point x="363" y="80" type="line"/>
      <point x="225" y="80" type="line"/>
    </contour>
    <component base="S"/>
  </outline>
</glyph>
